<?xml version="1.0" encoding="UTF-8"?>
<!DOCTYPE svg PUBLIC "-//W3C//DTD SVG 1.1//EN" "http://www.w3.org/Graphics/SVG/1.1/DTD/svg11.dtd">
<!-- Creator: CorelDRAW -->
<svg xmlns="http://www.w3.org/2000/svg" xml:space="preserve" width="73.172mm" height="68.234mm" style="shape-rendering:geometricPrecision; text-rendering:geometricPrecision; image-rendering:optimizeQuality; fill-rule:evenodd; clip-rule:evenodd"
viewBox="0 0 73.172 68.234"
 xmlns:xlink="http://www.w3.org/1999/xlink">
 <defs>
  <style type="text/css">
   <![CDATA[
    .str2 {stroke:#373435;stroke-width:0.0762}
    .str0 {stroke:#373435;stroke-width:0.0762;stroke-linejoin:bevel}
    .str1 {stroke:#195A32;stroke-width:0.0762}
    .fil1 {fill:none}
    .fil127 {fill:black}
    .fil132 {fill:#004F00}
    .fil128 {fill:white}
    .fil2 {fill:white}
    .fil131 {fill:#373435;fill-rule:nonzero}
    .fil14 {fill:url(#id3)}
    .fil0 {fill:url(#id4)}
    .fil3 {fill:url(#id5)}
    .fil91 {fill:url(#id6)}
    .fil92 {fill:url(#id7)}
    .fil93 {fill:url(#id8)}
    .fil76 {fill:url(#id9)}
    .fil70 {fill:url(#id10)}
    .fil80 {fill:url(#id11)}
    .fil89 {fill:url(#id12)}
    .fil71 {fill:url(#id13)}
    .fil72 {fill:url(#id14)}
    .fil74 {fill:url(#id15)}
    .fil79 {fill:url(#id16)}
    .fil44 {fill:url(#id17)}
    .fil41 {fill:url(#id18)}
    .fil73 {fill:url(#id19)}
    .fil82 {fill:url(#id20)}
    .fil78 {fill:url(#id21)}
    .fil88 {fill:url(#id22)}
    .fil26 {fill:url(#id23)}
    .fil17 {fill:url(#id24)}
    .fil37 {fill:url(#id25)}
    .fil51 {fill:url(#id26)}
    .fil45 {fill:url(#id27)}
    .fil57 {fill:url(#id28)}
    .fil23 {fill:url(#id29)}
    .fil15 {fill:url(#id30)}
    .fil9 {fill:url(#id31)}
    .fil83 {fill:url(#id32)}
    .fil68 {fill:url(#id33)}
    .fil64 {fill:url(#id34)}
    .fil20 {fill:url(#id35)}
    .fil40 {fill:url(#id36)}
    .fil59 {fill:url(#id37)}
    .fil106 {fill:url(#id38)}
    .fil107 {fill:url(#id39)}
    .fil39 {fill:url(#id40)}
    .fil29 {fill:url(#id41)}
    .fil35 {fill:url(#id42)}
    .fil27 {fill:url(#id43)}
    .fil66 {fill:url(#id44)}
    .fil77 {fill:url(#id45)}
    .fil67 {fill:url(#id46)}
    .fil34 {fill:url(#id47)}
    .fil8 {fill:url(#id48)}
    .fil32 {fill:url(#id49)}
    .fil36 {fill:url(#id50)}
    .fil50 {fill:url(#id51)}
    .fil56 {fill:url(#id52)}
    .fil16 {fill:url(#id53)}
    .fil38 {fill:url(#id54)}
    .fil102 {fill:url(#id55)}
    .fil33 {fill:url(#id56)}
    .fil47 {fill:url(#id57)}
    .fil21 {fill:url(#id58)}
    .fil85 {fill:url(#id59)}
    .fil81 {fill:url(#id60)}
    .fil12 {fill:url(#id61)}
    .fil24 {fill:url(#id62)}
    .fil22 {fill:url(#id63)}
    .fil103 {fill:url(#id64)}
    .fil18 {fill:url(#id65)}
    .fil105 {fill:url(#id66)}
    .fil25 {fill:url(#id67)}
    .fil43 {fill:url(#id68)}
    .fil86 {fill:url(#id69)}
    .fil63 {fill:url(#id70)}
    .fil69 {fill:url(#id71)}
    .fil75 {fill:url(#id72)}
    .fil58 {fill:url(#id73)}
    .fil28 {fill:url(#id74)}
    .fil100 {fill:url(#id75)}
    .fil53 {fill:url(#id76)}
    .fil13 {fill:url(#id77)}
    .fil87 {fill:url(#id78)}
    .fil114 {fill:url(#id79)}
    .fil113 {fill:url(#id80)}
    .fil111 {fill:url(#id81)}
    .fil116 {fill:url(#id82)}
    .fil117 {fill:url(#id83)}
    .fil118 {fill:url(#id84)}
    .fil65 {fill:url(#id85)}
    .fil84 {fill:url(#id86)}
    .fil46 {fill:url(#id87)}
    .fil101 {fill:url(#id88)}
    .fil19 {fill:url(#id89)}
    .fil104 {fill:url(#id90)}
    .fil112 {fill:url(#id91)}
    .fil110 {fill:url(#id92)}
    .fil109 {fill:url(#id93)}
    .fil108 {fill:url(#id94)}
    .fil115 {fill:url(#id95)}
    .fil6 {fill:url(#id96)}
    .fil98 {fill:url(#id97)}
    .fil61 {fill:url(#id98)}
    .fil7 {fill:url(#id99)}
    .fil62 {fill:url(#id100)}
    .fil90 {fill:url(#id101)}
    .fil30 {fill:url(#id102)}
    .fil31 {fill:url(#id103)}
    .fil95 {fill:url(#id104)}
    .fil42 {fill:url(#id105)}
    .fil52 {fill:url(#id106)}
    .fil99 {fill:url(#id107)}
    .fil97 {fill:url(#id108)}
    .fil54 {fill:url(#id109)}
    .fil60 {fill:url(#id110)}
    .fil11 {fill:url(#id111)}
    .fil49 {fill:url(#id112)}
    .fil5 {fill:url(#id113)}
    .fil55 {fill:url(#id114)}
    .fil96 {fill:url(#id115)}
    .fil48 {fill:url(#id116)}
    .fil10 {fill:url(#id117)}
    .fil4 {fill:url(#id118)}
    .fil120 {fill:url(#id119)}
    .fil94 {fill:url(#id120)}
    .fil119 {fill:url(#id121)}
    .fil121 {fill:url(#id122)}
    .fil122 {fill:url(#id123)}
    .fil124 {fill:url(#id124)}
    .fil123 {fill:url(#id125)}
    .fil125 {fill:url(#id126)}
    .fil126 {fill:url(#id127)}
    .fil130 {fill:url(#id128);fill-rule:nonzero}
    .fil129 {fill:url(#id129);fill-rule:nonzero}
   ]]>
  </style>
   <clipPath id="id0">
    <path d="M19.0227 15.8723l0.4589 2.0666 -0.7414 0.8258 -2.2063 -0.2598 -1.1591 1.5335 0.987 1.9159 -0.5353 0.8966 -2.2134 0.2615 -0.4651 1.0555 1.3465 1.6781 -0.3661 1.009 -2.0926 0.6366 -0.3771 1.7125 1.6802 1.311 -0.0849 1.045 -1.905 1.1296 0.0038 1.1554 1.8542 0.9565 0.1409 1.0728 -1.61 1.4669 0.2362 1.1477 1.9632 0.6192 0.3287 1.0001 -1.2425 1.6307 0.7539 1.6842 2.1569 0.1275 0.5504 0.933 -0.8744 1.9665 0.9599 1.2962 2.1351 -0.3247 0.7391 0.8026 -0.4066 2.1021 1.202 1.0041 2.0696 -0.808 0.8744 0.6092 0.057 2.2314 1.3397 0.6889 1.8466 -1.2118 0.9843 0.4083 0.5567 2.1508 2.1413 0.5441 1.4479 -1.6146 1.0301 0.1537 1.0231 1.9107 1.2388 0.0344 1.1052 -1.8873 1.0509 -0.0295 1.3543 1.652 1.8069 -0.3193 0.6098 -2.0643 1.0361 -0.2929 1.7642 1.2894 1.0535 -0.4415 0.1734 -2.1239 0.9448 -0.5001 1.9498 0.9447 0.9726 -0.6772 -0.1713 -2.1058 0.8212 -0.6599 2.0538 0.535 1.1049 -1.1707 -0.6019 -1.9099 0.6665 -0.8519 2.0447 0.0235 0.8948 -1.4526 -0.9634 -1.7215 0.4493 -0.9555 1.957 -0.4354 0.5074 -1.3876 -1.3282 -1.508 0.2138 -1.0326 1.87 -0.8512 0.1811 -1.6322 -1.6562 -1.1862 0.0082 -1.0425 1.6637 -1.261 -0.1353 -1.1467 -1.8628 -0.8856 -0.1889 -1.0283 1.3722 -1.5165 -0.5887 -1.7674 -2.0252 -0.34 -0.4389 -0.9619 1.0142 -1.836 -0.6446 -1.0956 -2.1674 0.0643 -0.6017 -0.8766 0.6532 -2.0359 -0.7411 -0.8483 -2.1408 0.4857 -0.7755 -0.7172 0.2912 -2.1358 -1.6082 -1.1462 -1.9036 0.9393 -0.9046 -0.5311 -0.2356 -2.0907 -1.5548 -0.6436 -1.6605 1.3622 -0.9797 -0.3139 -0.721 -2.0265 -1.5802 -0.2783 -1.3245 1.6912 -1.0316 -0.0749 -1.1422 -1.8492 -1.6787 0.0496 -0.9104 1.8938 -1.0503 0.15 -1.4771 -1.5196 -1.8444 0.4837 -0.4504 2.0723 -0.9835 0.4112 -1.8019 -1.1705 -1.2097 0.6279 -0.075 2.1335 -0.8627 0.6076 -2.015 -0.783 -1.3778 1.1476zm16.0268 6.1964c6.3081,0 11.4528,4.9923 11.4528,11.113 0,6.1207 -5.1447,11.1128 -11.4528,11.1128 -6.3079,0 -11.4527,-4.9921 -11.4527,-11.1128 0,-6.1207 5.1448,-11.113 11.4527,-11.113z"/>
   </clipPath>
    <clipPath id="id1">
     <path d="M35.7609 44.2724c-0.308,0.0241 -0.6194,0.0369 -0.9338,0.0369 -6.3253,0 -11.4528,-4.9754 -11.4528,-11.1128 0,-5.9104 4.7553,-10.7423 10.7561,-11.0918 -5.881,0.4568 -10.5336,5.2565 -10.5336,11.077 0,6.1207 5.1448,11.1128 11.4527,11.1128 0.2389,0 0.476,-0.008 0.7114,-0.0221z"/>
    </clipPath>
    <clipPath id="id2">
     <path d="M19.0227 15.8723l0.4589 2.0666 -0.7414 0.8258 -2.2063 -0.2598 -1.1591 1.5335 0.987 1.9159 -0.5353 0.8966 -2.2134 0.2615 -0.4651 1.0555 1.3465 1.6781 -0.3661 1.009 -2.0926 0.6366 -0.3771 1.7125 1.6802 1.311 -0.0849 1.045 -1.905 1.1296 0.0038 1.1554 1.8542 0.9565 0.1409 1.0728 -1.61 1.4669 0.2362 1.1477 1.9632 0.6192 0.3287 1.0001 -1.2425 1.6307 0.7539 1.6842 2.1569 0.1275 0.5504 0.933 -0.8744 1.9665 0.9599 1.2962 2.1351 -0.3247 0.7391 0.8026 -0.4066 2.1021 1.202 1.0041 2.0696 -0.808 0.8744 0.6092 0.057 2.2314 1.3397 0.6889 1.8466 -1.2118 0.9843 0.4083 0.5567 2.1508 2.1413 0.5441 1.4479 -1.6146 1.0301 0.1537 1.0231 1.9107 1.2388 0.0344 1.1052 -1.8873 1.0509 -0.0295 1.3543 1.652 1.8069 -0.3193 0.6098 -2.0643 1.0361 -0.2929 1.7642 1.2894 1.0535 -0.4415 0.1734 -2.1239 0.9448 -0.5001 1.9498 0.9447 0.9726 -0.6772 -0.1713 -2.1058 0.8212 -0.6599 2.0538 0.535 1.1049 -1.1707 -0.6019 -1.9099 0.6665 -0.8519 2.0447 0.0235 0.8948 -1.4526 -0.9634 -1.7215 0.4493 -0.9555 1.957 -0.4354 0.5074 -1.3876 -1.3282 -1.508 0.2138 -1.0326 1.87 -0.8512 0.1811 -1.6322 -1.6562 -1.1862 0.0082 -1.0425 1.6637 -1.261 -0.1353 -1.1467 -1.8628 -0.8856 -0.1889 -1.0283 1.3722 -1.5165 -0.5887 -1.7674 -2.0252 -0.34 -0.4389 -0.9619 1.0142 -1.836 -0.6446 -1.0956 -2.1674 0.0643 -0.6017 -0.8766 0.6532 -2.0359 -0.7411 -0.8483 -2.1408 0.4857 -0.7755 -0.7172 0.2912 -2.1358 -1.6082 -1.1462 -1.9036 0.9393 -0.9046 -0.5311 -0.2356 -2.0907 -1.5548 -0.6436 -1.6605 1.3622 -0.9797 -0.3139 -0.721 -2.0265 -1.5802 -0.2783 -1.3245 1.6912 -1.0316 -0.0749 -1.1422 -1.8492 -1.6787 0.0496 -0.9104 1.8938 -1.0503 0.15 -1.4771 -1.5196 -1.8444 0.4837 -0.4504 2.0723 -0.9835 0.4112 -1.8019 -1.1705 -1.2097 0.6279 -0.075 2.1335 -0.8627 0.6076 -2.015 -0.783 -1.3778 1.1476zm16.0268 6.1964c6.3081,0 11.4528,4.9923 11.4528,11.113 0,6.1207 -5.1447,11.1128 -11.4528,11.1128 -6.3079,0 -11.4527,-4.9921 -11.4527,-11.1128 0,-6.1207 5.1448,-11.113 11.4527,-11.113z"/>
    </clipPath>
  <linearGradient id="id3" gradientUnits="userSpaceOnUse" x1="10.6304" y1="27.8629" x2="23.4898" y2="29.3647">
   <stop offset="0" style="stop-color:#06793A"/>
   <stop offset="1" style="stop-color:#BDD8C5"/>
  </linearGradient>
  <linearGradient id="id4" gradientUnits="userSpaceOnUse" x1="11.3416" y1="36.9613" x2="58.5408" y2="36.9613">
   <stop offset="0" style="stop-color:#336633"/>
   <stop offset="0.0588235" style="stop-color:#336633"/>
   <stop offset="0.211765" style="stop-color:#009900"/>
   <stop offset="0.490196" style="stop-color:white"/>
   <stop offset="0.721569" style="stop-color:#009900"/>
   <stop offset="0.901961" style="stop-color:#336633"/>
   <stop offset="1" style="stop-color:#336633"/>
  </linearGradient>
  <linearGradient id="id5" gradientUnits="userSpaceOnUse" x1="21.4259" y1="33.0895" x2="48.3578" y2="33.0895">
   <stop offset="0" style="stop-color:#336633"/>
   <stop offset="0.0705882" style="stop-color:#009900"/>
   <stop offset="0.470588" style="stop-color:white"/>
   <stop offset="0.890196" style="stop-color:#009900"/>
   <stop offset="1" style="stop-color:#336633"/>
  </linearGradient>
  <linearGradient id="id6" gradientUnits="userSpaceOnUse" x1="31.32" y1="8.5585" x2="38.1891" y2="8.5585">
   <stop offset="0" style="stop-color:#336633"/>
   <stop offset="0.0901961" style="stop-color:#009900"/>
   <stop offset="0.54902" style="stop-color:white"/>
   <stop offset="0.890196" style="stop-color:#009900"/>
   <stop offset="1" style="stop-color:#336633"/>
  </linearGradient>
  <linearGradient id="id7" gradientUnits="userSpaceOnUse" x1="15.8458" y1="17.3024" x2="53.6742" y2="17.3024">
   <stop offset="0" style="stop-color:#336633"/>
   <stop offset="0.239216" style="stop-color:#009900"/>
   <stop offset="0.478431" style="stop-color:white"/>
   <stop offset="0.709804" style="stop-color:#009900"/>
   <stop offset="1" style="stop-color:#336633"/>
  </linearGradient>
  <linearGradient id="id8" gradientUnits="userSpaceOnUse" x1="15.8205" y1="11.5787" x2="53.6606" y2="11.5787">
   <stop offset="0" style="stop-color:#407346"/>
   <stop offset="0.0705882" style="stop-color:#048B16"/>
   <stop offset="0.478431" style="stop-color:#FEFEFE"/>
   <stop offset="0.909804" style="stop-color:#048B16"/>
   <stop offset="1" style="stop-color:#407346"/>
  </linearGradient>
  <linearGradient id="id9" gradientUnits="userSpaceOnUse" x1="22.4802" y1="25.5379" x2="22.6256" y2="17.6661">
   <stop offset="0" style="stop-color:#195A32"/>
   <stop offset="1" style="stop-color:#789A81"/>
  </linearGradient>
  <linearGradient id="id10" gradientUnits="userSpaceOnUse" xlink:href="#id9" x1="17.937" y1="35.8782" x2="17.937" y2="33.6952">
  </linearGradient>
  <linearGradient id="id11" gradientUnits="userSpaceOnUse" xlink:href="#id9" x1="20.2088" y1="44.481" x2="20.2088" y2="38.772">
  </linearGradient>
  <linearGradient id="id12" gradientUnits="userSpaceOnUse" xlink:href="#id9" x1="22.4799" y1="48.2057" x2="22.4799" y2="40.9967">
  </linearGradient>
  <linearGradient id="id13" gradientUnits="userSpaceOnUse" xlink:href="#id9" x1="48.7522" y1="26.4752" x2="48.667" y2="19.8384">
  </linearGradient>
  <linearGradient id="id14" gradientUnits="userSpaceOnUse" xlink:href="#id9" x1="46.0397" y1="49.9966" x2="45.9357" y2="42.0328">
  </linearGradient>
  <linearGradient id="id15" gradientUnits="userSpaceOnUse" xlink:href="#id9" x1="46.3979" y1="24.488" x2="46.2919" y2="16.7098">
  </linearGradient>
  <linearGradient id="id16" gradientUnits="userSpaceOnUse" xlink:href="#id9" x1="48.6062" y1="46.93" x2="48.4956" y2="39.995">
  </linearGradient>
  <linearGradient id="id17" gradientUnits="userSpaceOnUse" xlink:href="#id3" x1="47.0794" y1="35.1792" x2="59.5518" y2="36.603">
  </linearGradient>
  <linearGradient id="id18" gradientUnits="userSpaceOnUse" x1="13.4497" y1="41.3507" x2="24.7607" y2="40.2013">
   <stop offset="0" style="stop-color:#06793A"/>
   <stop offset="0.988235" style="stop-color:#5CA67B"/>
   <stop offset="1" style="stop-color:#B3D3BC"/>
  </linearGradient>
  <linearGradient id="id19" gradientUnits="userSpaceOnUse" xlink:href="#id9" x1="18.6112" y1="40.179" x2="18.6514" y2="36.2488">
  </linearGradient>
  <linearGradient id="id20" gradientUnits="userSpaceOnUse" xlink:href="#id9" x1="51.7502" y1="38.5848" x2="51.7074" y2="35.2282">
  </linearGradient>
  <linearGradient id="id21" gradientUnits="userSpaceOnUse" xlink:href="#id9" x1="50.6271" y1="28.677" x2="50.5595" y2="23.654">
  </linearGradient>
  <linearGradient id="id22" gradientUnits="userSpaceOnUse" xlink:href="#id9" x1="50.5863" y1="42.8363" x2="50.5161" y2="37.7509">
  </linearGradient>
  <linearGradient id="id23" gradientUnits="userSpaceOnUse" xlink:href="#id3" x1="11.6632" y1="39.1632" x2="23.795" y2="40.6094">
  </linearGradient>
  <linearGradient id="id24" gradientUnits="userSpaceOnUse" xlink:href="#id18" x1="46.9566" y1="31.4388" x2="58.1186" y2="30.3158">
  </linearGradient>
  <linearGradient id="id25" gradientUnits="userSpaceOnUse" xlink:href="#id18" x1="46.2104" y1="27.6491" x2="56.953" y2="26.5671">
  </linearGradient>
  <linearGradient id="id26" gradientUnits="userSpaceOnUse" xlink:href="#id18" x1="47.1289" y1="35.0214" x2="58.1685" y2="33.9084">
  </linearGradient>
  <linearGradient id="id27" gradientUnits="userSpaceOnUse" xlink:href="#id18" x1="46.5311" y1="38.8038" x2="57.3473" y2="37.7096">
  </linearGradient>
  <linearGradient id="id28" gradientUnits="userSpaceOnUse" xlink:href="#id18" x1="45.4289" y1="42.1712" x2="55.5171" y2="41.1498">
  </linearGradient>
  <linearGradient id="id29" gradientUnits="userSpaceOnUse" xlink:href="#id18" x1="44.7095" y1="24.4141" x2="54.8455" y2="23.3869">
  </linearGradient>
  <linearGradient id="id30" gradientUnits="userSpaceOnUse" xlink:href="#id18" x1="13.1908" y1="26.9689" x2="24.2614" y2="25.8341">
  </linearGradient>
  <linearGradient id="id31" gradientUnits="userSpaceOnUse" xlink:href="#id18" x1="15.3176" y1="23.7883" x2="25.4842" y2="22.7421">
  </linearGradient>
  <linearGradient id="id32" gradientUnits="userSpaceOnUse" xlink:href="#id9" x1="25.3808" y1="51.0014" x2="25.3066" y2="42.9542">
  </linearGradient>
  <linearGradient id="id33" gradientUnits="userSpaceOnUse" xlink:href="#id9" x1="51.839" y1="31.2125" x2="51.7906" y2="28.2289">
  </linearGradient>
  <linearGradient id="id34" gradientUnits="userSpaceOnUse" xlink:href="#id9" x1="20.3214" y1="27.6025" x2="20.1054" y2="21.6359">
  </linearGradient>
  <linearGradient id="id35" gradientUnits="userSpaceOnUse" xlink:href="#id3" x1="11.0473" y1="35.6053" x2="22.4461" y2="36.9383">
  </linearGradient>
  <linearGradient id="id36" gradientUnits="userSpaceOnUse" xlink:href="#id3" x1="14.8083" y1="42.9134" x2="24.6717" y2="44.0436">
  </linearGradient>
  <linearGradient id="id37" gradientUnits="userSpaceOnUse" xlink:href="#id18" x1="16.5166" y1="44.4893" x2="25.8864" y2="43.5459">
  </linearGradient>
  <linearGradient id="id38" gradientUnits="userSpaceOnUse" xlink:href="#id18" x1="14.2458" y1="16.4343" x2="25.5174" y2="15.2985">
  </linearGradient>
  <linearGradient id="id39" gradientUnits="userSpaceOnUse" xlink:href="#id18" x1="10.5416" y1="16.5088" x2="23.5018" y2="15.2028">
  </linearGradient>
  <linearGradient id="id40" gradientUnits="userSpaceOnUse" xlink:href="#id18" x1="43.7061" y1="45.2302" x2="52.6279" y2="44.3308">
  </linearGradient>
  <linearGradient id="id41" gradientUnits="userSpaceOnUse" xlink:href="#id18" x1="43.0274" y1="21.5809" x2="52.2192" y2="20.6533">
  </linearGradient>
  <linearGradient id="id42" gradientUnits="userSpaceOnUse" xlink:href="#id18" x1="11.9508" y1="30.6268" x2="23.1908" y2="29.461">
  </linearGradient>
  <linearGradient id="id43" gradientUnits="userSpaceOnUse" xlink:href="#id18" x1="12.1808" y1="37.7263" x2="23.2978" y2="36.5731">
  </linearGradient>
  <linearGradient id="id44" gradientUnits="userSpaceOnUse" xlink:href="#id9" x1="25.2609" y1="23.3713" x2="25.5093" y2="15.0169">
  </linearGradient>
  <linearGradient id="id45" gradientUnits="userSpaceOnUse" xlink:href="#id9" x1="18.0043" y1="32.3691" x2="17.9705" y2="30.3277">
  </linearGradient>
  <linearGradient id="id46" gradientUnits="userSpaceOnUse" xlink:href="#id9" x1="18.8775" y1="29.9783" x2="18.7171" y2="25.5492">
  </linearGradient>
  <linearGradient id="id47" gradientUnits="userSpaceOnUse" xlink:href="#id3" x1="10.7136" y1="31.8988" x2="22.3416" y2="33.2702">
  </linearGradient>
  <linearGradient id="id48" gradientUnits="userSpaceOnUse" xlink:href="#id3" x1="12.785" y1="24.4897" x2="23.912" y2="25.7781">
  </linearGradient>
  <linearGradient id="id49" gradientUnits="userSpaceOnUse" xlink:href="#id3" x1="15.623" y1="21.1144" x2="25.6516" y2="22.2658">
  </linearGradient>
  <linearGradient id="id50" gradientUnits="userSpaceOnUse" xlink:href="#id3" x1="46.173" y1="23.812" x2="56.3018" y2="24.9738">
  </linearGradient>
  <linearGradient id="id51" gradientUnits="userSpaceOnUse" xlink:href="#id3" x1="47.8705" y1="31.2127" x2="59.0777" y2="32.4969">
  </linearGradient>
  <linearGradient id="id52" gradientUnits="userSpaceOnUse" xlink:href="#id3" x1="46.7733" y1="39.0023" x2="57.8715" y2="40.2693">
  </linearGradient>
  <linearGradient id="id53" gradientUnits="userSpaceOnUse" xlink:href="#id3" x1="47.3918" y1="27.5357" x2="58.3494" y2="28.7855">
  </linearGradient>
  <linearGradient id="id54" gradientUnits="userSpaceOnUse" xlink:href="#id3" x1="45.2798" y1="42.623" x2="55.5812" y2="43.7964">
  </linearGradient>
  <linearGradient id="id55" gradientUnits="userSpaceOnUse" xlink:href="#id3" x1="43.4414" y1="15.8922" x2="56.0708" y2="17.3364">
  </linearGradient>
  <linearGradient id="id56" gradientUnits="userSpaceOnUse" xlink:href="#id18" x1="18.8332" y1="20.6826" x2="27.2724" y2="19.8428">
  </linearGradient>
  <linearGradient id="id57" gradientUnits="userSpaceOnUse" xlink:href="#id18" x1="19.9074" y1="47.0786" x2="28.0662" y2="46.2602">
  </linearGradient>
  <linearGradient id="id58" gradientUnits="userSpaceOnUse" xlink:href="#id18" x1="11.7784" y1="34.1508" x2="22.7688" y2="33.016">
  </linearGradient>
  <linearGradient id="id59" gradientUnits="userSpaceOnUse" xlink:href="#id9" x1="52.1574" y1="33.8501" x2="52.1388" y2="32.5373">
  </linearGradient>
  <linearGradient id="id60" gradientUnits="userSpaceOnUse" xlink:href="#id9" x1="43.3798" y1="22.4772" x2="43.0402" y2="14.2084">
  </linearGradient>
  <linearGradient id="id61" gradientUnits="userSpaceOnUse" xlink:href="#id3" x1="18.953" y1="18.273" x2="28.123" y2="19.339">
  </linearGradient>
  <linearGradient id="id62" gradientUnits="userSpaceOnUse" xlink:href="#id3" x1="43.4219" y1="45.6909" x2="52.3037" y2="46.7103">
  </linearGradient>
  <linearGradient id="id63" gradientUnits="userSpaceOnUse" xlink:href="#id3" x1="44.5121" y1="20.7666" x2="53.4953" y2="21.7946">
  </linearGradient>
  <linearGradient id="id64" gradientUnits="userSpaceOnUse" xlink:href="#id3" x1="45.3968" y1="15.8281" x2="58.5026" y2="17.3267">
  </linearGradient>
  <linearGradient id="id65" gradientUnits="userSpaceOnUse" xlink:href="#id3" x1="40.7832" y1="48.0146" x2="48.977" y2="48.951">
  </linearGradient>
  <linearGradient id="id66" gradientUnits="userSpaceOnUse" xlink:href="#id18" x1="19.2165" y1="16.2619" x2="27.0667" y2="15.4707">
  </linearGradient>
  <linearGradient id="id67" gradientUnits="userSpaceOnUse" xlink:href="#id18" x1="41.4789" y1="47.5931" x2="49.1529" y2="46.8159">
  </linearGradient>
  <linearGradient id="id68" gradientUnits="userSpaceOnUse" xlink:href="#id18" x1="40.8891" y1="18.9249" x2="48.2311" y2="18.1725">
  </linearGradient>
  <linearGradient id="id69" gradientUnits="userSpaceOnUse" xlink:href="#id9" x1="28.6261" y1="52.8044" x2="28.6261" y2="44.663">
  </linearGradient>
  <linearGradient id="id70" gradientUnits="userSpaceOnUse" xlink:href="#id9" x1="28.6265" y1="21.6723" x2="28.6265" y2="13.2981">
  </linearGradient>
  <linearGradient id="id71" gradientUnits="userSpaceOnUse" xlink:href="#id9" x1="43.1244" y1="51.8781" x2="43.0192" y2="44.0317">
  </linearGradient>
  <linearGradient id="id72" gradientUnits="userSpaceOnUse" xlink:href="#id9" x1="39.9408" y1="53.4128" x2="39.7778" y2="45.0806">
  </linearGradient>
  <linearGradient id="id73" gradientUnits="userSpaceOnUse" xlink:href="#id3" x1="18.2848" y1="46.0316" x2="26.5826" y2="46.9808">
  </linearGradient>
  <linearGradient id="id74" gradientUnits="userSpaceOnUse" xlink:href="#id3" x1="42.1275" y1="18.2229" x2="50.4491" y2="19.1723">
  </linearGradient>
  <linearGradient id="id75" gradientUnits="userSpaceOnUse" xlink:href="#id3" x1="41.9722" y1="16.216" x2="50.8504" y2="17.2312">
  </linearGradient>
  <linearGradient id="id76" gradientUnits="userSpaceOnUse" xlink:href="#id18" x1="24.0098" y1="49.0464" x2="30.43" y2="48.412">
  </linearGradient>
  <linearGradient id="id77" gradientUnits="userSpaceOnUse" xlink:href="#id18" x1="22.8529" y1="18.3624" x2="29.4897" y2="17.6856">
  </linearGradient>
  <linearGradient id="id78" gradientUnits="userSpaceOnUse" xlink:href="#id9" x1="32.3452" y1="20.6903" x2="32.3452" y2="12.2447">
  </linearGradient>
  <linearGradient id="id79" gradientUnits="userSpaceOnUse" xlink:href="#id9" x1="48.271" y1="20.0797" x2="48.1484" y2="11.2682">
  </linearGradient>
  <linearGradient id="id80" gradientUnits="userSpaceOnUse" xlink:href="#id9" x1="46.4601" y1="20.1268" x2="46.3371" y2="11.2934">
  </linearGradient>
  <linearGradient id="id81" gradientUnits="userSpaceOnUse" xlink:href="#id9" x1="43.6487" y1="20.1397" x2="43.5262" y2="11.3386">
  </linearGradient>
  <linearGradient id="id82" gradientUnits="userSpaceOnUse" xlink:href="#id9" x1="25.5245" y1="20.1263" x2="25.4023" y2="11.3449">
  </linearGradient>
  <linearGradient id="id83" gradientUnits="userSpaceOnUse" xlink:href="#id9" x1="23.1468" y1="20.1132" x2="23.0239" y2="11.2902">
  </linearGradient>
  <linearGradient id="id84" gradientUnits="userSpaceOnUse" xlink:href="#id9" x1="20.8712" y1="20.1063" x2="20.7477" y2="11.2361">
  </linearGradient>
  <linearGradient id="id85" gradientUnits="userSpaceOnUse" xlink:href="#id9" x1="36.2392" y1="54.0346" x2="36.1194" y2="45.7554">
  </linearGradient>
  <linearGradient id="id86" gradientUnits="userSpaceOnUse" xlink:href="#id9" x1="36.1624" y1="20.4995" x2="36.0244" y2="12.1357">
  </linearGradient>
  <linearGradient id="id87" gradientUnits="userSpaceOnUse" xlink:href="#id3" x1="22.4396" y1="48.4818" x2="28.973" y2="49.2296">
  </linearGradient>
  <linearGradient id="id88" gradientUnits="userSpaceOnUse" xlink:href="#id3" x1="39.3321" y1="16.2867" x2="46.9705" y2="17.1601">
  </linearGradient>
  <linearGradient id="id89" gradientUnits="userSpaceOnUse" xlink:href="#id18" x1="39.179" y1="49.303" x2="45.2062" y2="48.6982">
  </linearGradient>
  <linearGradient id="id90" gradientUnits="userSpaceOnUse" xlink:href="#id18" x1="23.5674" y1="16.1584" x2="29.236" y2="15.587">
  </linearGradient>
  <linearGradient id="id91" gradientUnits="userSpaceOnUse" xlink:href="#id9" x1="40.616" y1="20.0285" x2="40.4964" y2="11.4364">
  </linearGradient>
  <linearGradient id="id92" gradientUnits="userSpaceOnUse" xlink:href="#id9" x1="37.9629" y1="20.0474" x2="37.8437" y2="11.4846">
  </linearGradient>
  <linearGradient id="id93" gradientUnits="userSpaceOnUse" xlink:href="#id9" x1="34.7292" y1="20.0395" x2="34.6102" y2="11.4892">
  </linearGradient>
  <linearGradient id="id94" gradientUnits="userSpaceOnUse" xlink:href="#id9" x1="31.3903" y1="20.0424" x2="31.2712" y2="11.4862">
  </linearGradient>
  <linearGradient id="id95" gradientUnits="userSpaceOnUse" xlink:href="#id9" x1="28.4506" y1="20.0395" x2="28.3311" y2="11.4491">
  </linearGradient>
  <linearGradient id="id96" gradientUnits="userSpaceOnUse" xlink:href="#id3" x1="23.472" y1="16.321" x2="30.2978" y2="17.132">
  </linearGradient>
  <linearGradient id="id97" gradientUnits="userSpaceOnUse" xlink:href="#id3" x1="36.863" y1="16.3771" x2="42.9204" y2="17.0697">
  </linearGradient>
  <linearGradient id="id98" gradientUnits="userSpaceOnUse" xlink:href="#id18" x1="38.2752" y1="17.1387" x2="43.9534" y2="16.5489">
  </linearGradient>
  <linearGradient id="id99" gradientUnits="userSpaceOnUse" xlink:href="#id18" x1="26.8449" y1="16.8019" x2="32.3869" y2="16.2241">
  </linearGradient>
  <linearGradient id="id100" gradientUnits="userSpaceOnUse" xlink:href="#id9" x1="32.7" y1="53.757" x2="32.5652" y2="45.8454">
  </linearGradient>
  <linearGradient id="id101" gradientUnits="userSpaceOnUse" xlink:href="#id9" x1="39.8617" y1="20.9259" x2="39.6441" y2="12.9901">
  </linearGradient>
  <linearGradient id="id102" gradientUnits="userSpaceOnUse" xlink:href="#id3" x1="38.5617" y1="49.7744" x2="44.5505" y2="50.4576">
  </linearGradient>
  <linearGradient id="id103" gradientUnits="userSpaceOnUse" xlink:href="#id18" x1="36.3218" y1="50.3575" x2="41.247" y2="49.8621">
  </linearGradient>
  <linearGradient id="id104" gradientUnits="userSpaceOnUse" xlink:href="#id18" x1="27.4568" y1="16.1358" x2="31.9204" y2="15.6858">
  </linearGradient>
  <linearGradient id="id105" gradientUnits="userSpaceOnUse" xlink:href="#id3" x1="39.9232" y1="16.148" x2="45.4902" y2="16.7922">
  </linearGradient>
  <linearGradient id="id106" gradientUnits="userSpaceOnUse" xlink:href="#id3" x1="26.7864" y1="50.1864" x2="32.0158" y2="50.7774">
  </linearGradient>
  <linearGradient id="id107" gradientUnits="userSpaceOnUse" xlink:href="#id18" x1="35.1876" y1="16.1041" x2="39.057" y2="15.7141">
  </linearGradient>
  <linearGradient id="id108" gradientUnits="userSpaceOnUse" xlink:href="#id18" x1="31.4157" y1="16.1006" x2="35.2937" y2="15.7098">
  </linearGradient>
  <linearGradient id="id109" gradientUnits="userSpaceOnUse" xlink:href="#id3" x1="28.4956" y1="15.0384" x2="33.1566" y2="15.5922">
  </linearGradient>
  <linearGradient id="id110" gradientUnits="userSpaceOnUse" xlink:href="#id3" x1="36.5461" y1="14.9873" x2="41.1695" y2="15.5271">
  </linearGradient>
  <linearGradient id="id111" gradientUnits="userSpaceOnUse" xlink:href="#id18" x1="32.9501" y1="50.6762" x2="36.9287" y2="50.2688">
  </linearGradient>
  <linearGradient id="id112" gradientUnits="userSpaceOnUse" xlink:href="#id18" x1="35.437" y1="16.1077" x2="39.362" y2="15.7035">
  </linearGradient>
  <linearGradient id="id113" gradientUnits="userSpaceOnUse" xlink:href="#id18" x1="29.2939" y1="50.3416" x2="33.3211" y2="49.9266">
  </linearGradient>
  <linearGradient id="id114" gradientUnits="userSpaceOnUse" xlink:href="#id18" x1="31.5208" y1="15.9691" x2="35.538" y2="15.5545">
  </linearGradient>
  <linearGradient id="id115" gradientUnits="userSpaceOnUse" xlink:href="#id3" x1="34.159" y1="16.5171" x2="37.7714" y2="16.9301">
  </linearGradient>
  <linearGradient id="id116" gradientUnits="userSpaceOnUse" xlink:href="#id3" x1="32.9878" y1="14.6414" x2="36.7318" y2="15.0798">
  </linearGradient>
  <linearGradient id="id117" gradientUnits="userSpaceOnUse" xlink:href="#id3" x1="35.7519" y1="50.9493" x2="39.4293" y2="51.3757">
  </linearGradient>
  <linearGradient id="id118" gradientUnits="userSpaceOnUse" xlink:href="#id3" x1="31.9224" y1="51.0958" x2="35.645" y2="51.5272">
  </linearGradient>
  <linearGradient id="id119" gradientUnits="userSpaceOnUse" xlink:href="#id18" x1="39.0396" y1="16.1181" x2="41.9338" y2="15.8269">
  </linearGradient>
  <linearGradient id="id120" gradientUnits="userSpaceOnUse" xlink:href="#id3" x1="29.3505" y1="17.9441" x2="35.2691" y2="15.4075">
  </linearGradient>
  <linearGradient id="id121" gradientUnits="userSpaceOnUse" xlink:href="#id18" x1="42.6667" y1="16.1005" x2="45.6573" y2="15.7991">
  </linearGradient>
  <linearGradient id="id122" gradientUnits="userSpaceOnUse" xlink:href="#id18" x1="45.8968" y1="16.072" x2="49.0752" y2="15.7516">
  </linearGradient>
  <linearGradient id="id123" gradientUnits="userSpaceOnUse" xlink:href="#id18" x1="48.0232" y1="16.0697" x2="51.2874" y2="15.7407">
  </linearGradient>
  <linearGradient id="id124" gradientUnits="userSpaceOnUse" xlink:href="#id3" x1="24.6767" y1="17.5109" x2="26.9027" y2="15.8413">
  </linearGradient>
  <linearGradient id="id125" gradientUnits="userSpaceOnUse" xlink:href="#id3" x1="28.0075" y1="17.4574" x2="30.0917" y2="15.895">
  </linearGradient>
  <linearGradient id="id126" gradientUnits="userSpaceOnUse" xlink:href="#id3" x1="21.4587" y1="17.4793" x2="23.6003" y2="15.8731">
  </linearGradient>
  <linearGradient id="id127" gradientUnits="userSpaceOnUse" xlink:href="#id3" x1="18.0769" y1="17.5706" x2="20.4629" y2="15.7812">
  </linearGradient>
  <linearGradient id="id128" gradientUnits="userSpaceOnUse" x1="40.2037" y1="28.0068" x2="44.7713" y2="28.0068">
   <stop offset="0" style="stop-color:#A9ABAE"/>
   <stop offset="0.501961" style="stop-color:white"/>
   <stop offset="1" style="stop-color:#A9ABAE"/>
  </linearGradient>
  <linearGradient id="id129" gradientUnits="userSpaceOnUse" xlink:href="#id128" x1="46.799" y1="28.0068" x2="54.6455" y2="28.0068">
  </linearGradient>
 </defs>
 <g id="Engrane_x0020_2">
  <metadata id="CorelCorpID_0Corel-Layer"/>
  <path id="Circulo_x0020_exterior" class="fil0" d="M19.0227 15.8723l0.4589 2.0666 -0.7414 0.8258 -2.2063 -0.2598 -1.1591 1.5335 0.987 1.9159 -0.5353 0.8966 -2.2134 0.2615 -0.4651 1.0555 1.3465 1.6781 -0.3661 1.009 -2.0926 0.6366 -0.3771 1.7125 1.6802 1.311 -0.0849 1.045 -1.905 1.1296 0.0038 1.1554 1.8542 0.9565 0.1409 1.0728 -1.61 1.4669 0.2362 1.1477 1.9632 0.6192 0.3287 1.0001 -1.2425 1.6307 0.7539 1.6842 2.1569 0.1275 0.5504 0.933 -0.8744 1.9665 0.9599 1.2962 2.1351 -0.3247 0.7391 0.8026 -0.4066 2.1021 1.202 1.0041 2.0696 -0.808 0.8744 0.6092 0.057 2.2314 1.3397 0.6889 1.8466 -1.2118 0.9843 0.4083 0.5567 2.1508 2.1413 0.5441 1.4479 -1.6146 1.0301 0.1537 1.0231 1.9107 1.2388 0.0344 1.1052 -1.8873 1.0509 -0.0295 1.3543 1.652 1.8069 -0.3193 0.6098 -2.0643 1.0361 -0.2929 1.7642 1.2894 1.0535 -0.4415 0.1734 -2.1239 0.9448 -0.5001 1.9498 0.9447 0.9726 -0.6772 -0.1713 -2.1058 0.8212 -0.6599 2.0538 0.535 1.1049 -1.1707 -0.6019 -1.9099 0.6665 -0.8519 2.0447 0.0235 0.8948 -1.4526 -0.9634 -1.7215 0.4493 -0.9555 1.957 -0.4354 0.5074 -1.3876 -1.3282 -1.508 0.2138 -1.0326 1.87 -0.8512 0.1811 -1.6322 -1.6562 -1.1862 0.0082 -1.0425 1.6637 -1.261 -0.1353 -1.1467 -1.8628 -0.8856 -0.1889 -1.0283 1.3722 -1.5165 -0.5887 -1.7674 -2.0252 -0.34 -0.4389 -0.9619 1.0142 -1.836 -0.6446 -1.0956 -2.1674 0.0643 -0.6017 -0.8766 0.6532 -2.0359 -0.7411 -0.8483 -2.1408 0.4857 -0.7755 -0.7172 0.2912 -2.1358 -1.6082 -1.1462 -1.9036 0.9393 -0.9046 -0.5311 -0.2356 -2.0907 -1.5548 -0.6436 -1.6605 1.3622 -0.9797 -0.3139 -0.721 -2.0265 -1.5802 -0.2783 -1.3245 1.6912 -1.0316 -0.0749 -1.1422 -1.8492 -1.6787 0.0496 -0.9104 1.8938 -1.0503 0.15 -1.4771 -1.5196 -1.8444 0.4837 -0.4504 2.0723 -0.9835 0.4112 -1.8019 -1.1705 -1.2097 0.6279 -0.075 2.1335 -0.8627 0.6076 -2.015 -0.783 -1.3778 1.1476zm16.0268 6.1964c6.3081,0 11.4528,4.9923 11.4528,11.113 0,6.1207 -5.1447,11.1128 -11.4528,11.1128 -6.3079,0 -11.4527,-4.9921 -11.4527,-11.1128 0,-6.1207 5.1448,-11.113 11.4527,-11.113z"/>
  <g style="clip-path:url(#id0)">
   <g id="_339223952">
    <g>
     <line id="_4201981041" class="fil1 str0" x1="34.8271" y1="22.0836" x2="34.8271" y2= "22.0836" />
    </g>
    <path id="_339224744" class="fil2" d="M34.8271 22.0836c6.3252,0 11.4527,4.9754 11.4527,11.1129 0,6.1374 -5.1275,11.1128 -11.4527,11.1128 -6.3253,0 -11.4528,-4.9754 -11.4528,-11.1128 0,-6.1375 5.1275,-11.1129 11.4528,-11.1129z"/>
   </g>
   <g style="clip-path:url(#id1)">
    <g>
     <ellipse id="_339223760" class="fil1 str0" cx="34.8271" cy="33.1965" rx="11.4528" ry="11.1129"/>
    </g>
   </g>
   <g style="clip-path:url(#id2)">
    <path class="fil1 str0" d="M34.8271 22.0836c6.3252,0 11.4527,4.9754 11.4527,11.1129 0,6.1374 -5.1275,11.1128 -11.4527,11.1128 -6.3253,0 -11.4528,-4.9754 -11.4528,-11.1128 0,-6.1375 5.1275,-11.1129 11.4528,-11.1129z"/>
   </g>
  </g>
  <path class="fil1 str1" d="M19.0227 15.8723l0.4589 2.0666 -0.7414 0.8258 -2.2063 -0.2598 -1.1591 1.5335 0.987 1.9159 -0.5353 0.8966 -2.2134 0.2615 -0.4651 1.0555 1.3465 1.6781 -0.3661 1.009 -2.0926 0.6366 -0.3771 1.7125 1.6802 1.311 -0.0849 1.045 -1.905 1.1296 0.0038 1.1554 1.8542 0.9565 0.1409 1.0728 -1.61 1.4669 0.2362 1.1477 1.9632 0.6192 0.3287 1.0001 -1.2425 1.6307 0.7539 1.6842 2.1569 0.1275 0.5504 0.933 -0.8744 1.9665 0.9599 1.2962 2.1351 -0.3247 0.7391 0.8026 -0.4066 2.1021 1.202 1.0041 2.0696 -0.808 0.8744 0.6092 0.057 2.2314 1.3397 0.6889 1.8466 -1.2118 0.9843 0.4083 0.5567 2.1508 2.1413 0.5441 1.4479 -1.6146 1.0301 0.1537 1.0231 1.9107 1.2388 0.0344 1.1052 -1.8873 1.0509 -0.0295 1.3543 1.652 1.8069 -0.3193 0.6098 -2.0643 1.0361 -0.2929 1.7642 1.2894 1.0535 -0.4415 0.1734 -2.1239 0.9448 -0.5001 1.9498 0.9447 0.9726 -0.6772 -0.1713 -2.1058 0.8212 -0.6599 2.0538 0.535 1.1049 -1.1707 -0.6019 -1.9099 0.6665 -0.8519 2.0447 0.0235 0.8948 -1.4526 -0.9634 -1.7215 0.4493 -0.9555 1.957 -0.4354 0.5074 -1.3876 -1.3282 -1.508 0.2138 -1.0326 1.87 -0.8512 0.1811 -1.6322 -1.6562 -1.1862 0.0082 -1.0425 1.6637 -1.261 -0.1353 -1.1467 -1.8628 -0.8856 -0.1889 -1.0283 1.3722 -1.5165 -0.5887 -1.7674 -2.0252 -0.34 -0.4389 -0.9619 1.0142 -1.836 -0.6446 -1.0956 -2.1674 0.0643 -0.6017 -0.8766 0.6532 -2.0359 -0.7411 -0.8483 -2.1408 0.4857 -0.7755 -0.7172 0.2912 -2.1358 -1.6082 -1.1462 -1.9036 0.9393 -0.9046 -0.5311 -0.2356 -2.0907 -1.5548 -0.6436 -1.6605 1.3622 -0.9797 -0.3139 -0.721 -2.0265 -1.5802 -0.2783 -1.3245 1.6912 -1.0316 -0.0749 -1.1422 -1.8492 -1.6787 0.0496 -0.9104 1.8938 -1.0503 0.15 -1.4771 -1.5196 -1.8444 0.4837 -0.4504 2.0723 -0.9835 0.4112 -1.8019 -1.1705 -1.2097 0.6279 -0.075 2.1335 -0.8627 0.6076 -2.015 -0.783 -1.3778 1.1476zm16.0268 6.1964c6.3081,0 11.4528,4.9923 11.4528,11.113 0,6.1207 -5.1447,11.1128 -11.4528,11.1128 -6.3079,0 -11.4527,-4.9921 -11.4527,-11.1128 0,-6.1207 5.1448,-11.113 11.4527,-11.113z"/>
  <path id="Circulo_x0020_Central" class="fil3 str1" d="M34.8918 19.745c7.4168,0 13.466,5.9945 13.466,13.3445 0,7.3498 -6.0492,13.3445 -13.466,13.3445 -7.4167,0 -13.4659,-5.9947 -13.4659,-13.3445 0,-7.35 6.0492,-13.3445 13.4659,-13.3445zm0.1577 2.3237c6.3081,0 11.4528,4.9923 11.4528,11.113 0,6.1207 -5.1447,11.1128 -11.4528,11.1128 -6.3079,0 -11.4527,-4.9921 -11.4527,-11.1128 0,-6.1207 5.1448,-11.113 11.4527,-11.113z"/>
  <g id="FONDO_x0020_LATERAL">
   <g id="fonL14">
    <polygon id="fonL14a" class="fil4 str1" points="33.8127,45.2326 34.2362,46.418 33.6163,56.3745 32.5841,54.4643 "/>
    <polygon id="fonL14_0" class="fil5 str1" points="32.8025,45.0974 32.0425,46.1322 30.1175,55.9288 31.551,54.3116 "/>
   </g>
   <g id="fonL2">
    <polygon id="fonL2a" class="fil6 str1" points="29.8391,22.155 28.8068,21.1941 24.55,12.132 26.3836,13.307 "/>
    <polygon id="fonL2_1" class="fil7 str1" points="30.7838,21.7604 30.9493,20.3289 27.8057,10.8409 27.3568,12.9163 "/>
   </g>
   <g id="fonL5">
    <polygon id="fonL5a" class="fil8 str1" points="24.0834,27.392 22.7599,27.2981 13.627,23.1194 15.824,22.8617 "/>
    <polygon id="fonL5_2" class="fil9 str1" points="24.5943,26.5031 23.9047,25.3728 15.383,20.0498 16.3602,21.9579 "/>
   </g>
   <g id="fonL15">
    <polygon id="fonL15a" class="fil10 str1" points="36.4902,45.1839 37.127,46.2365 38.366,56.1682 36.9973,54.4861 "/>
    <polygon id="fonL15_3" class="fil11 str1" points="35.4727,45.2416 34.9041,46.438 34.8569,56.4148 35.9541,54.5309 "/>
   </g>
   <g id="fonL3">
    <polygon id="fonL3a" class="fil12 str1" points="27.445,23.5693 26.286,22.8087 20.3933,14.7405 22.4083,15.522 "/>
    <polygon id="fonL3_4" class="fil13 str1" points="28.2962,22.9809 28.1636,21.5147 23.3512,12.79 23.2881,14.9315 "/>
   </g>
   <g id="fonL6">
    <polygon id="fonL6a" class="fil14 str1" points="23.131,29.7679 21.8145,29.9469 12.0329,27.5113 14.146,26.8522 "/>
    <polygon id="fonL6_5" class="fil15 str1" points="23.4655,28.8016 22.5164,27.7927 13.1457,24.159 14.5026,25.8667 "/>
   </g>
   <g id="fonL23">
    <polygon id="fonL23a" class="fil16 str1" points="47.1769,30.0064 47.8359,29.3309 57.5718,26.7944 56.1908,28.3299 "/>
    <polygon id="fonL23_6" class="fil17 str1" points="47.3637,31.0082 48.2546,31.4578 58.2572,30.2144 56.3683,29.3588 "/>
   </g>
   <g id="fonL17">
    <polygon id="fonL17a" class="fil18 str1" points="41.3749,43.6145 42.3108,44.1934 47.708,52.6659 45.7387,51.7049 "/>
    <polygon id="fonL17_7" class="fil19 str1" points="40.4789,44.1013 40.3872,45.2435 44.6144,54.3448 44.814,52.1911 "/>
   </g>
   <g id="fonL8">
    <polygon id="fonL8a" class="fil20 str1" points="22.7226,34.8163 21.6501,35.5096 11.733,37.3442 13.3463,35.8773 "/>
    <polygon id="fonL8_8" class="fil21 str1" points="22.5986,33.8038 21.4424,33.296 11.3665,33.8526 13.2337,34.8383 "/>
   </g>
   <g id="fonL25">
    <polygon id="fonL25a" class="fil22 str1" points="44.5898,25.4138 45.0728,24.3779 52.7793,17.9438 52.1139,20.0058 "/>
    <polygon id="fonL25_9" class="fil23 str1" points="45.1008,26.2466 46.2926,26.178 54.7972,20.8038 52.6282,20.8674 "/>
   </g>
   <g id="fonL18">
    <polygon id="fonL18a" class="fil24 str1" points="43.5215,42.0608 44.5099,42.3942 51.3791,49.7536 49.2995,49.2101 "/>
    <polygon id="fonL18_10" class="fil25 str1" points="42.7303,42.7041 42.8505,43.8438 48.6736,52.0033 48.4801,49.8582 "/>
   </g>
   <g id="fonL9">
    <polygon id="fonL9a" class="fil26 str1" points="23.4044,37.3854 22.4861,38.2429 13.0419,41.737 14.2658,40.1084 "/>
    <polygon id="fonL9_11" class="fil27 str1" points="23.087,36.4124 21.7995,36.1531 11.9656,38.4853 13.9547,39.1074 "/>
   </g>
   <g id="fonL26">
    <polygon id="fonL26a" class="fil28 str1" points="42.7053,23.5797 42.9951,22.4499 49.3904,14.7171 49.1154,16.8695 "/>
    <polygon id="fonL26_12" class="fil29 str1" points="43.4518,24.2885 44.6912,23.932 52.0298,17.0971 49.8703,17.6061 "/>
   </g>
   <g id="fonL16">
    <polygon id="fonL16a" class="fil30 str1" points="39.0074,44.6365 39.8646,45.4388 43.5721,54.779 41.7903,53.4618 "/>
    <polygon id="fonL16_13" class="fil31 str1" points="38.0229,44.9443 37.7122,46.1302 40.1471,55.8222 40.7774,53.7636 "/>
   </g>
   <g id="fonL4">
    <polygon id="fonL4a" class="fil32 str1" points="25.6226,25.3435 24.2895,24.9075 16.535,18.5062 18.7439,18.7758 "/>
    <polygon id="fonL4_14" class="fil33 str1" points="26.3239,24.5552 25.8694,23.1849 19.0341,15.8678 19.473,17.9784 "/>
   </g>
   <g id="fonL7">
    <polygon id="fonL7a" class="fil34 str1" points="22.6787,32.266 21.4567,32.7405 11.3535,32.7057 13.267,31.5658 "/>
    <polygon id="fonL7_15" class="fil35 str1" points="22.7552,31.2494 21.6797,30.5299 11.6529,29.1987 13.3599,30.5254 "/>
   </g>
   <g id="fonL24">
    <polygon id="fonL24a" class="fil36 str1" points="46.1454,27.5889 46.7211,26.7033 55.5301,21.8782 54.5139,23.7362 "/>
    <polygon id="fonL24_16" class="fil37 str1" points="46.5742,28.5136 47.6215,28.7142 56.99,25.0393 54.9403,24.6896 "/>
   </g>
   <g id="fonL19">
    <polygon id="fonL19a" class="fil38 str1" points="45.226,40.1716 46.2213,40.2451 54.5968,45.8392 52.5295,45.8159 "/>
    <polygon id="fonL19_17" class="fil39 str1" points="44.599,40.9837 44.9028,42.0185 52.4777,48.5814 51.8759,46.6392 "/>
   </g>
   <g id="fonL10">
    <polygon id="fonL10a" class="fil40 str1" points="24.5795,39.7421 23.923,40.8011 15.6178,46.4763 16.4791,44.4719 "/>
    <polygon id="fonL10_18" class="fil41 str1" points="24.0469,38.853 22.7489,38.8419 13.7743,43.4134 15.9459,43.5538 "/>
   </g>
   <g id="fonL27">
    <polygon id="fonL27a" class="fil42 str1" points="40.4159,22.1797 40.4154,20.9181 44.7393,11.8818 44.9916,13.9732 "/>
    <polygon id="fonL27_19" class="fil43 str1" points="41.3006,22.7028 42.4202,22.0259 47.8025,13.5691 45.8908,14.5218 "/>
   </g>
   <g id="fonL21">
    <polygon id="fonL21a" class="fil44 str1" points="47.3434,35.3308 48.2178,34.9683 58.1834,36.5011 56.3083,37.3629 "/>
    <polygon id="fonL21_20" class="fil45 str1" points="47.121,36.326 47.7314,37.0827 57.435,39.8909 56.0665,38.3793 "/>
   </g>
   <g id="fonL12">
    <polygon id="fonL12a" class="fil46 str1" points="28.4879,43.4346 28.3048,44.7089 23.2457,53.3649 23.1855,51.1243 "/>
    <polygon id="fonL12_21" class="fil47 str1" points="27.6298,42.8512 26.418,43.4454 20.2419,51.3249 22.3146,50.5148 "/>
   </g>
   <g id="fonL29">
    <polygon id="fonL29a" class="fil48 str1" points="35.1664,20.9912 34.6938,19.7458 34.7482,9.7458 35.8849,11.6127 "/>
    <polygon id="fonL29_22" class="fil49 str1" points="36.1832,21.0696 36.9174,19.8972 38.256,10.0092 36.9255,11.7075 "/>
   </g>
   <g id="fonL22">
    <polygon id="fonL22a" class="fil50 str1" points="47.5239,32.6168 48.3144,32.0699 58.3804,31.3635 56.7162,32.6358 "/>
    <polygon id="fonL22_23" class="fil51 str1" points="47.5249,33.6365 48.3082,34.2487 58.3736,34.8552 56.703,33.6804 "/>
   </g>
   <g id="fonL13">
    <polygon id="fonL13a" class="fil52 str1" points="30.9381,44.6023 31.0537,45.88 27.9703,55.3766 27.4202,53.2378 "/>
    <polygon id="fonL13_24" class="fil53 str1" points="29.9628,44.2214 28.905,45.051 24.5836,54.056 26.4264,52.8343 "/>
   </g>
   <g id="fonL1">
    <polygon id="fonL1a" class="fil54 str1" points="32.4556,21.2844 31.6981,20.1247 29.6419,10.3539 31.1212,11.8808 "/>
    <polygon id="fonL1_25" class="fil55 str1" points="33.4641,21.1282 33.9408,19.7717 33.0851,9.8251 32.1564,11.7353 "/>
   </g>
   <g id="fonL20">
    <polygon id="fonL20a" class="fil56 str1" points="46.5792,37.8203 47.5278,37.6496 56.9498,41.2728 54.9491,41.7116 "/>
    <polygon id="fonL20_26" class="fil57 str1" points="46.1512,38.7475 46.6246,39.6443 55.4861,44.3983 54.4977,42.6556 "/>
   </g>
   <g id="fonL11">
    <polygon id="fonL11a" class="fil58 str1" points="26.3603,41.8021 25.905,43.0334 19.0482,50.3326 19.446,48.1926 "/>
    <polygon id="fonL11_27" class="fil59 str1" points="25.636,41.055 24.3321,41.3549 16.5872,47.7438 18.7145,47.4174 "/>
   </g>
   <g id="fonL28">
    <polygon id="fonL28a" class="fil60 str1" points="37.8569,21.3318 37.6239,20.0149 39.8335,10.2895 40.547,12.3024 "/>
    <polygon id="fonL28_28" class="fil61 str1" points="38.8326,21.6341 39.8108,20.6601 43.2011,11.257 41.5425,12.626 "/>
   </g>
  </g>
  <g id="FONDOS">
   <polygon id="fon14" class="fil62 str1" points="32.7917,45.1105 33.8087,45.25 32.5795,54.4849 31.5723,54.3373 "/>
   <polygon id="fon2" class="fil63 str1" points="30.7867,21.7432 29.834,22.1374 26.3775,13.2863 27.3256,12.9043 "/>
   <polygon id="fon5" class="fil64 str1" points="24.5861,26.4882 24.0684,27.3819 15.8062,22.8498 16.3278,21.9683 "/>
   <polygon id="fon15" class="fil65 str1" points="35.4645,45.2566 36.4895,45.2018 36.9966,54.5072 35.9799,54.5522 "/>
   <polygon id="fon3" class="fil66 str1" points="28.2959,22.9633 27.4367,23.553 22.3984,15.5027 23.2554,14.9261 "/>
   <polygon id="fon6" class="fil67 str1" points="23.4546,28.7886 23.1144,29.7607 14.1263,26.8438 14.4726,25.8829 "/>
   <polygon id="fon23" class="fil68 str1" points="47.3793,31.0144 47.1944,30.0048 56.2116,28.3279 56.3858,29.3306 "/>
   <polygon id="fon17" class="fil69 str1" points="40.4777,44.1181 41.3818,43.6308 45.7469,51.7241 44.8462,52.1991 "/>
   <polygon id="fon8" class="fil70 str1" points="22.583,33.7965 22.7044,34.8167 13.3248,35.8778 13.2139,34.8653 "/>
   <polygon id="fon25" class="fil71 str1" points="45.2091,26.2456 44.6051,25.4048 52.132,19.995 52.7233,20.8341 "/>
   <polygon id="fon18" class="fil72 str1" points="42.7323,42.7209 43.5313,42.0756 49.3111,49.2275 48.5132,49.8601 "/>
   <polygon id="fon9" class="fil73 str1" points="23.07,36.408 23.3864,37.389 14.2445,40.1128 13.9401,39.1374 "/>
   <polygon id="fon26" class="fil74 str1" points="43.4683,24.2844 42.7188,23.568 49.1313,16.8556 49.8679,17.5726 "/>
   <polygon id="fon16" class="fil75 str1" points="38.0185,44.9607 39.0111,44.6538 41.7948,53.4824 40.8079,53.7777 "/>
   <polygon id="fon4" class="fil76 str1" points="26.3194,24.5381 25.6106,25.3296 18.7296,18.7595 19.4394,17.9814 "/>
   <polygon id="fon7" class="fil77 str1" points="22.7413,31.2394 22.6608,32.263 13.2458,31.5624 13.3351,30.5482 "/>
   <polygon id="fon24" class="fil78 str1" points="46.5909,28.5158 46.1621,27.583 54.5336,23.7292 54.9504,24.658 "/>
   <polygon id="fon19" class="fil79 str1" points="44.6048,40.9996 45.2389,40.1837 52.5449,45.8302 51.9088,46.6334 "/>
   <polygon id="fon10" class="fil80 str1" points="24.0297,38.8525 24.5632,39.7497 16.4598,44.481 15.939,43.5867 "/>
   <polygon id="fon27" class="fil81 str1" points="41.3154,22.6947 40.4262,22.1648 45.0036,13.9556 45.8807,14.4893 "/>
   <polygon id="fon21" class="fil82 str1" points="47.1329,36.3379 47.3602,35.3364 56.3282,37.3694 56.0937,38.3603 "/>
   <polygon id="fon12" class="fil83 str1" points="27.614,42.8579 28.4763,43.4483 23.1719,51.1407 22.3224,50.5475 "/>
   <polygon id="fon29" class="fil84 str1" points="36.1933,21.0558 35.1695,20.9734 35.8884,11.5916 36.9028,11.6828 "/>
   <polygon id="fon22" class="fil85 str1" points="47.5391,33.6455 47.5415,32.6185 56.737,32.6377 56.7253,33.6559 "/>
   <polygon id="fon13" class="fil86 str1" points="29.9488,44.2314 30.9297,44.6182 27.4104,53.2567 26.4414,52.8645 "/>
   <polygon id="fon1" class="fil87 str1" points="33.4709,21.1123 32.4547,21.2661 31.12,11.8593 32.1288,11.7162 "/>
   <polygon id="fon20" class="fil88 str1" points="46.1604,38.7617 46.5946,37.8293 54.9673,41.7221 54.5284,42.6427 "/>
   <polygon id="fon11" class="fil89 str1" points="25.6189,41.0583 26.3459,41.8131 19.429,48.2057 18.7152,47.451 "/>
   <polygon id="fon28" class="fil90 str1" points="38.8453,21.6228 37.8636,21.315 40.5549,12.2825 41.5255,12.5968 "/>
  </g>
 </g>
 <g id="Engrane_x0020_1">
  <metadata id="CorelCorpID_1Corel-Layer"/>
  <rect class="fil91 str1" x="31.32" y="7.30903" width="6.8691" height="2.4991"/>
  <path id="RellenoIf" class="fil92 str1" d="M15.8458 13.3732c5.8694,0.2238 12.5562,0.2598 18.8186,0.22 5.3748,-0.034 12.648,0.0644 19.0098,-0.2317l-6.8078 7.6452 -1.0089 -0.0885 -0.6081 -0.2454 -0.2126 0.2878 -0.2937 0.0377 -0.6176 -0.2998 -0.3258 -0.0003 -0.2361 0.357 -0.4814 0.0193 -0.8388 -0.3612 -0.7496 -0.0037 -0.2305 0.4178 -0.4515 0.0224 -1.1217 -0.4325 -0.5951 -0.015 -0.1632 0.4649 -0.8601 0.0454 -0.459 -0.4767 -0.7338 -0.0111 -0.3738 0.4656 -1.0852 0.0375 -0.5631 -0.4989 -0.6989 -0.0002 -0.6429 0.5146 -0.8364 -0.0343 -0.5124 -0.4803 -0.7848 -0.0003 -0.5172 0.4729 -0.96 -0.0231 -0.3388 -0.4573 -0.8001 -0.0187 -0.5199 0.4639 -1.1457 -0.0658 -0.1327 -0.3977 -0.2518 -0.0231 -0.5334 0.4129 -0.5013 -0.0475 -0.2115 -0.3616 -0.1916 -0.0001 -0.5567 0.3486 -0.6452 -0.0843 -0.2155 -0.2756 -0.4047 0.0036 -0.342 0.1967c-0.2956,-0.0536 -0.3564,-0.062 -0.5642,-0.1315l-6.7033 -7.3676z"/>
  <path id="rellenoSP" class="fil93 str1" d="M15.8205 13.3693l1.6754 -3.4802c1.5749,-0.2114 11.4632,-0.3312 17.1949,-0.285 5.7564,-0.0105 16.1668,0.0855 17.2235,0.289l1.7463 3.4597c-1.1696,0.2136 -11.5126,0.2306 -18.9631,0.2466 -5.5975,-0.027 -15.1174,-0.0105 -18.877,-0.2301z"/>
  <path id="fonif" class="fil92 str1" d="M15.8458 13.3732c5.8694,0.2238 12.5562,0.2598 18.8186,0.22 5.3748,-0.034 12.648,0.0644 19.0098,-0.2317l-6.8078 7.6452 -1.0089 -0.0885 -0.6081 -0.2454 -0.2126 0.2878 -0.2937 0.0377 -0.6176 -0.2998 -0.3258 -0.0003 -0.2361 0.357 -0.4814 0.0193 -0.8388 -0.3612 -0.7496 -0.0037 -0.2305 0.4178 -0.4515 0.0224 -1.1217 -0.4325 -0.5951 -0.015 -0.1632 0.4649 -0.8601 0.0454 -0.459 -0.4767 -0.7338 -0.0111 -0.3738 0.4656 -1.0852 0.0375 -0.5631 -0.4989 -0.6989 -0.0002 -0.6429 0.5146 -0.8364 -0.0343 -0.5124 -0.4803 -0.7848 -0.0003 -0.5172 0.4729 -0.96 -0.0231 -0.3388 -0.4573 -0.8001 -0.0187 -0.5199 0.4639 -1.1457 -0.0658 -0.1327 -0.3977 -0.2518 -0.0231 -0.5334 0.4129 -0.5013 -0.0475 -0.2115 -0.3616 -0.1916 -0.0001 -0.5567 0.3486 -0.6452 -0.0843 -0.2155 -0.2756 -0.4047 0.0036 -0.342 0.1967c-0.2956,-0.0536 -0.3564,-0.062 -0.5642,-0.1315l-6.7033 -7.3676z"/>
  <path id="fonsp" class="fil93 str1" d="M15.8205 13.3693l1.6754 -3.4802c1.5749,-0.2114 11.4632,-0.3312 17.1949,-0.285 5.7564,-0.0105 16.1668,0.0855 17.2235,0.289l1.7463 3.4597c-1.1696,0.2136 -11.5126,0.2306 -18.9631,0.2466 -5.5975,-0.027 -15.1174,-0.0105 -18.877,-0.2301z"/>
  <g id="FONDOS_x0020_LATERALES">
   <polygon id="fonL5a_29" class="fil94 str1" points="31.5322,10.7648 31.9606,13.5892 32.6839,21.2104 32.1699,20.732 "/>
   <polygon id="fonL5_30" class="fil95 str1" points="30.502,10.7893 28.9457,13.5957 30.8721,21.1868 31.3791,20.7372 "/>
   <polygon id="fonL6a_31" class="fil96 str1" points="35.1876,10.8123 36.1075,13.597 35.4113,21.2052 34.8446,20.7268 "/>
   <polygon id="fonL6_32" class="fil97 str1" points="34.1686,10.7839 33.1444,13.5979 33.5272,21.2237 34.15,20.7371 "/>
   <polygon id="fonL7a_33" class="fil98 str1" points="38.9409,10.7951 40.4269,13.5817 38.0615,21.1946 37.6215,20.7417 "/>
   <polygon id="fonL7_34" class="fil99 str1" points="37.9359,10.7877 36.9041,13.5941 36.4988,21.2068 36.8841,20.7099 "/>
   <polygon id="fonL9_35" class="fil100 str1" points="45.6785,10.7542 47.9504,13.5307 43.0812,21.0706 42.2485,20.7199 45.5223,13.5625 45.2008,12.4528 "/>
   <polygon id="fonL8_36" class="fil101 str1" points="42.0333,10.7635 44.538,13.5604 40.9975,20.7262 40.8057,21.1393 39.6919,20.7206 41.5101,14.0103 41.6548,13.5761 41.6204,13.4342 "/>
   <polygon id="fonL10_37" class="fil102 str1" points="48.9952,10.7057 50.0955,13.504 44.7426,20.9926 44.1126,20.6975 48.7929,13.5116 48.476,12.3988 "/>
   <polygon id="fonL11_38" class="fil103 str1" points="51.1653,10.7046 52.0587,13.4442 45.851,20.9082 45.2451,20.678 50.6819,13.4882 50.4432,12.3321 "/>
   <polygon id="fonL4_39" class="fil104 str1" points="27.215,10.7513 25.3755,13.5686 28.2495,21.1489 28.7673,20.7101 "/>
   <polygon id="fonL3_40" class="fil105 str1" points="23.9551,10.7706 22.1155,13.5468 26.193,21.0844 26.7108,20.6843 25.3714,16.2247 24.4136,13.5622 24.463,13.3922 "/>
   <polygon id="fonL2_41" class="fil106 str1" points="20.6792,10.699 18.8465,13.4775 24.7271,21.0208 25.3004,20.6843 21.1606,13.5205 "/>
   <polygon id="fonL1_42" class="fil107 str1" points="17.8195,10.6886 16.9571,13.4237 23.12,20.8648 23.4647,20.6687 18.0549,13.4527 18.3217,12.1248 "/>
  </g>
  <g id="FONDOS_43">
   <polygon id="fon5_44" class="fil108 str1" points="30.5004,10.7982 31.5267,10.7981 32.1611,20.729 31.3801,20.7305 "/>
   <polygon id="fon6_45" class="fil109 str1" points="34.1597,10.7982 35.186,10.7981 34.8322,20.729 34.1534,20.7305 "/>
   <polygon id="fon7_46" class="fil110 str1" points="37.9365,10.8041 38.9331,10.7981 37.6102,20.7339 36.8735,20.73 "/>
   <polygon id="fon9_47" class="fil111 str1" points="44.6436,10.7605 45.6699,10.7667 45.1808,12.407 45.5277,13.5457 42.2471,20.7037 41.505,20.7178 45.5363,13.5591 44.7547,11.0612 "/>
   <polygon id="fon8_48" class="fil112 str1" points="40.984,10.7581 42.0162,10.7522 41.6327,13.6003 39.6831,20.7045 39.0962,20.7127 41.6469,13.5777 "/>
   <polygon id="fon10_49" class="fil113 str1" points="47.971,10.7213 48.9946,10.7187 48.4615,12.3996 48.7931,13.5315 44.1007,20.7015 43.8025,20.7003 48.7959,13.5304 47.976,10.7577 "/>
   <polygon id="fon11_50" class="fil114 str1" points="50.1425,10.6991 51.1688,10.699 50.4544,12.3521 50.6729,13.4936 45.2506,20.6489 50.6689,13.504 "/>
   <polygon id="fon4_51" class="fil115 str1" points="27.2198,10.7619 28.2461,10.7618 28.2587,10.8582 27.6745,13.586 29.3747,19.3314 29.562,20.7267 28.7696,20.7056 27.4047,11.9489 "/>
   <polygon id="fon3_52" class="fil116 str1" points="23.9598,10.7619 24.9861,10.7618 24.9987,10.8582 24.4185,13.552 26.9671,20.7093 26.7301,20.6882 24.4069,13.5522 24.4604,13.4021 "/>
   <polygon id="fon2_53" class="fil117 str1" points="20.6998,10.714 21.7261,10.7139 21.7387,10.8103 21.1469,13.5158 25.4709,20.6895 25.285,20.6847 24.3067,18.8683 21.1554,13.5091 "/>
   <polygon id="fon1_54" class="fil118 str1" points="17.8198,10.6632 18.6506,10.6632 18.0477,13.4388 23.7269,20.5387 23.7991,20.6792 23.4675,20.6767 18.0581,13.4334 18.3199,12.1346 "/>
  </g>
  <g id="LINEAS">
   <polygon id="Linea6" class="fil119 str1" points="44.6434,10.7585 45.5392,13.565 41.2524,21.1337 45.5421,13.5721 "/>
   <polygon id="Linea5" class="fil120 str1" points="40.9836,10.7425 41.6337,13.5811 38.9248,21.1782 41.6368,13.5808 "/>
   <polygon id="Linea7" class="fil121 str1" points="47.9676,10.72 48.7866,13.5277 43.5498,21.0696 48.7895,13.5348 "/>
   <polygon id="Linea8" class="fil122 str1" points="50.1367,10.7136 50.677,13.5034 45.0264,20.9744 50.6735,13.4913 "/>
   <polygon id="Linea4" class="fil123 str1" points="28.2722,10.7648 27.6798,13.6008 29.9168,21.1903 29.563,20.7199 27.6678,13.586 "/>
   <polygon id="Linea3" class="fil124 str1" points="25.0122,10.7648 24.426,13.5488 27.1105,21.1111 24.4294,13.5492 "/>
   <polygon id="Linea2" class="fil125 str1" points="21.7522,10.744 21.1574,13.5265 25.6857,21.0494 21.1694,13.4855 "/>
   <polygon id="Linea1" class="fil126 str1" points="18.6503,10.6706 18.0493,13.4417 24.086,20.959 18.0461,13.4366 "/>
  </g>
 </g>
 <g id="Mapa_x0020_Baja_x0020_California">
  <metadata id="CorelCorpID_2Corel-Layer"/>
  <path id="Sombra_x0020_de_x0020_Baja_x0020_California" class="fil127 str2" d="M17.4554 5.3808l0 0.9119 0.8372 0.8006 -0.3394 0.5783 0.7467 1.1787c0.2263,0.4448 0.6562,0.8451 0.7241,1.3344 0.1584,0.6005 0.4751,1.1565 0.9956,1.6235l0.0679 1.0008c0.181,0.2892 0.3846,0.645 0.543,0.8674 0.3847,0.4893 0.3168,0.9563 0.2942,1.6458 0.4978,0.6227 1.0182,1.2455 1.5387,1.8682 0.7467,0.6449 1.5387,1.1565 2.2854,1.9794 0.4978,0.7116 0.4752,1.3789 0.181,1.9126 -0.1131,0.645 0.0226,1.1343 0.2489,1.4456 0.1584,0.5338 0,0.8229 -0.2036,1.0009 -0.3621,-0.089 -0.6336,-0.6673 -0.9278,-1.0009l-1.5387 -0.0444 0.973 0.9563c0.43,0.6894 0.8599,1.112 1.3351,2.0683 0.4525,0.178 -0.0227,-0.7561 0.4073,-0.7561 0.4525,-0.0668 0.1357,0.7784 0.6109,1.2009 0.3847,0.556 0.8825,0.9341 1.4029,1.2455 0.3621,0.0222 0.249,-0.6895 0.5657,-0.6227 0.4526,-0.0445 0.0453,0.5782 0.5431,0.9341l1.2898 1.1342c0.4299,0.2447 0.5431,0.8007 0.8146,1.201 0.5204,0.5115 0.9956,0.9563 0.9504,1.8904 0.5204,0.7117 0.0452,1.5346 -0.2489,2.0239 0.181,0.2001 0.2262,0.4225 0.0905,0.9341 0.3846,0.556 0.5883,0.8228 0.6109,1.112 0.9051,0.6005 1.4934,1.2454 2.2402,1.8904 0.6562,0.1334 1.1087,0.6005 1.4934,1.0898 0.7241,0.5337 1.4482,1.0675 2.1723,1.6013 0.7693,0.3113 0.9956,1.6013 1.9233,1.4011 0.3168,-0.4226 0.4299,-0.9341 0.9956,-1.2677 -0.0452,-0.556 -0.9051,-1.201 -1.3576,-1.8015l-0.4073 -0.7784c-0.4752,-0.2446 -0.7015,-0.8451 -0.973,-0.8673 -0.4526,-0.089 0.0226,1.4678 -0.9278,0.2224l-0.6788 -1.0231c-0.1358,-0.3781 -0.1584,-0.645 -0.3847,-1.0898l0.0227 -0.8228c0.0678,-0.2224 0.0226,-0.5561 -0.3621,-0.7785 -0.0679,-0.2224 -0.6788,-0.7339 -0.2715,-1.023 -0.9278,-0.6895 -0.3621,-0.6227 -0.5431,-0.9341l-0.5657 -0.8006 -0.2036 -2.3798c-0.0227,-0.4225 -0.3168,-0.7561 -0.5883,-1.0008 -0.3847,-0.3113 -0.0906,0.8674 -0.1358,0.8229 -0.2489,-0.2446 -0.3621,-0.4225 -0.4299,-0.6005 -0.1811,-0.3558 -0.3847,-0.8896 -0.611,-1.112 -0.2715,-0.2891 -0.6109,-1.1342 -0.6109,-1.1565 0,-0.1557 -0.7015,-0.3781 -0.8825,-0.5337 -0.2037,-0.2002 -0.0453,-0.9786 -0.2037,-1.112 -0.4752,-0.4449 -0.6109,-0.8452 -0.543,-1.3122 0.0452,-0.3559 -0.611,-0.734 -0.611,-1.1788 0,-0.0667 -1.1314,-1.2899 -1.4029,-1.4456 -0.4299,-0.2891 -1.0183,-0.7561 -0.792,-1.4901 -0.4299,-0.4893 -0.5204,-0.8451 -0.7693,-1.4011 -1.2219,-0.8451 -1.3577,-1.2232 -1.8329,-2.2463l-0.5657 -1.668 -0.1584 -2.6021c-0.2941,-0.6672 0.3395,-0.7339 0.3395,-1.3122 0.0226,-0.3113 -0.43,-0.9785 -0.3847,-1.2677 -0.1584,-0.1556 -0.3168,-0.7339 0,-1.0008 0.2489,-0.2224 0.2489,-0.6672 0.2715,-0.9118l-7.0598 -0.5338z"/>
  <path id="Peninsula_x0020_de_x0020_Baja_x0020_California" class="fil128 str2" d="M17.5661 5.7077l0 0.903 0.8149 0.7928 -0.3304 0.5726 0.7268 1.1673c0.2202,0.4404 0.6387,0.8368 0.7048,1.3214 0.1541,0.5946 0.4625,1.1452 0.969,1.6077l0.0661 0.991c0.1762,0.2863 0.3744,0.6387 0.5285,0.8589 0.3744,0.4846 0.3084,0.947 0.2863,1.6298 0.4846,0.6166 0.9911,1.2333 1.4976,1.8499 0.7268,0.6387 1.4976,1.1453 2.2244,1.9601 0.4845,0.7048 0.4625,1.3655 0.1762,1.894 -0.1101,0.6387 0.022,1.1232 0.2423,1.4316 0.1541,0.5285 0,0.8148 -0.1982,0.991 -0.3524,-0.0881 -0.6167,-0.6607 -0.903,-0.991l-1.4976 -0.0441 0.947 0.947c0.4184,0.6827 0.8369,1.1012 1.2994,2.0482 0.4405,0.1762 -0.022,-0.7488 0.3964,-0.7488 0.4405,-0.0661 0.1322,0.7708 0.5946,1.1893 0.3744,0.5505 0.859,0.9249 1.3655,1.2333 0.3524,0.022 0.2423,-0.6828 0.5506,-0.6167 0.4405,-0.044 0.044,0.5726 0.5286,0.925l1.2553 1.1232c0.4184,0.2423 0.5286,0.7928 0.7928,1.1893 0.5066,0.5065 0.9691,0.947 0.925,1.872 0.5066,0.7047 0.0441,1.5196 -0.2422,2.0041 0.1762,0.1982 0.2202,0.4184 0.0881,0.925 0.3744,0.5506 0.5726,0.8148 0.5946,1.1011 0.8809,0.5947 1.4536,1.2333 2.1803,1.872 0.6387,0.1322 1.0792,0.5947 1.4536,1.0792 0.7047,0.5285 1.4095,1.0571 2.1142,1.5857 0.7488,0.3083 0.9691,1.5856 1.872,1.3874 0.3084,-0.4184 0.4185,-0.9249 0.9691,-1.2553 -0.0441,-0.5506 -0.881,-1.1893 -1.3214,-1.7839l-0.3965 -0.7708c-0.4625,-0.2423 -0.6827,-0.8369 -0.947,-0.8589 -0.4404,-0.0881 0.0221,1.4535 -0.9029,0.2202l-0.6607 -1.0131c-0.1322,-0.3744 -0.1542,-0.6387 -0.3744,-1.0791l0.022 -0.8149c0.0661,-0.2202 0.022,-0.5506 -0.3524,-0.7708 -0.0661,-0.2202 -0.6607,-0.7268 -0.2643,-1.0131 -0.9029,-0.6827 -0.3523,-0.6166 -0.5285,-0.925l-0.5506 -0.7928 -0.1982 -2.3565c-0.0221,-0.4185 -0.3084,-0.7488 -0.5726,-0.9911 -0.3744,-0.3083 -0.0881,0.8589 -0.1322,0.8149 -0.2422,-0.2423 -0.3524,-0.4184 -0.4184,-0.5946 -0.1762,-0.3524 -0.3744,-0.881 -0.5947,-1.1012 -0.2643,-0.2863 -0.5946,-1.1232 -0.5946,-1.1452 0,-0.1542 -0.6827,-0.3744 -0.8589,-0.5286 -0.1982,-0.1982 -0.0441,-0.969 -0.1982,-1.1012 -0.4625,-0.4404 -0.5947,-0.8368 -0.5286,-1.2993 0.044,-0.3524 -0.5946,-0.7268 -0.5946,-1.1673 0,-0.066 -1.1012,-1.2773 -1.3655,-1.4315 -0.4184,-0.2863 -0.9911,-0.7488 -0.7708,-1.4756 -0.4185,-0.4845 -0.5066,-0.8369 -0.7488,-1.3874 -1.1893,-0.8369 -1.3214,-1.2113 -1.7839,-2.2244l-0.5506 -1.6518 -0.1542 -2.5767c-0.2863,-0.6607 0.3304,-0.7268 0.3304,-1.2994 0.022,-0.3083 -0.4185,-0.969 -0.3744,-1.2553 -0.1542,-0.1542 -0.3084,-0.7268 0,-0.9911 0.2422,-0.2202 0.2422,-0.6607 0.2643,-0.9029l-6.8714 -0.5286z"/>
 </g>
 <g id="ITT">
  <metadata id="CorelCorpID_3Corel-Layer"/>
  <path id="Inicial_x0020_T_x0020_1" class="fil129 str2" d="M54.6455 23.7521l0 2.3046 -0.2309 0c-0.1386,-0.5333 -0.2903,-0.9146 -0.4575,-1.1459 -0.1671,-0.2334 -0.398,-0.4177 -0.6905,-0.5547 -0.1628,-0.0771 -0.4486,-0.1135 -0.8554,-0.1135l-0.651 0 0 6.5625c0,0.4348 0.0242,0.7068 0.0726,0.816 0.0506,0.1092 0.1474,0.2035 0.2903,0.2849 0.1451,0.0835 0.3409,0.1242 0.5894,0.1242l0.2902 0 0 0.2313 -4.5741 0 0 -0.2313 0.2903 0c0.2529,0 0.4574,-0.045 0.6113,-0.1328 0.1122,-0.0578 0.2001,-0.1585 0.2639,-0.302 0.0484,-0.0985 0.0726,-0.3619 0.0726,-0.7903l0 -6.5625 -0.6333 0c-0.5872,0 -1.016,0.1199 -1.2822,0.3641 -0.3738,0.3384 -0.6091,0.8225 -0.708,1.45l-0.2442 0 0 -2.3046 7.8465 0z"/>
  <path id="Inicial_x0020_T_x0020_2" class="fil129 str2" d="M64.5672 23.7521l0 2.3046 -0.231 0c-0.1385,-0.5333 -0.2903,-0.9146 -0.4574,-1.1459 -0.1671,-0.2334 -0.398,-0.4177 -0.6905,-0.5547 -0.1628,-0.0771 -0.4486,-0.1135 -0.8555,-0.1135l-0.6509 0 0 6.5625c0,0.4348 0.0242,0.7068 0.0725,0.816 0.0506,0.1092 0.1474,0.2035 0.2903,0.2849 0.1452,0.0835 0.341,0.1242 0.5894,0.1242l0.2903 0 0 0.2313 -4.5742 0 0 -0.2313 0.2903 0c0.2529,0 0.4574,-0.045 0.6114,-0.1328 0.1121,-0.0578 0.2001,-0.1585 0.2639,-0.302 0.0484,-0.0985 0.0725,-0.3619 0.0725,-0.7903l0 -6.5625 -0.6333 0c-0.5872,0 -1.016,0.1199 -1.2821,0.3641 -0.3739,0.3384 -0.6092,0.8225 -0.7081,1.45l-0.2441 0 0 -2.3046 7.8465 0z"/>
  <path id="inicial_x0020_I" class="fil130 str2" d="M44.7713 32.0302l0 0.2313 -4.5676 0 0 -0.2313 0.2904 0c0.2529,0 0.4574,-0.045 0.6113,-0.1328 0.1122,-0.0578 0.1979,-0.1585 0.2573,-0.302 0.0484,-0.0985 0.0726,-0.3619 0.0726,-0.7903l0 -5.5965c0,-0.4349 -0.0242,-0.7069 -0.0726,-0.8161 -0.0462,-0.1092 -0.1407,-0.2034 -0.2859,-0.2849 -0.1429,-0.0813 -0.3386,-0.122 -0.5827,-0.122l-0.2904 0 0 -0.2335 4.5676 0 0 0.2335 -0.2902 0c-0.253,0 -0.4575,0.0428 -0.6113,0.1306 -0.1123,0.06 -0.2002,0.1585 -0.264,0.302 -0.0462,0.1006 -0.0704,0.3642 -0.0704,0.7904l0 5.5965c0,0.4348 0.0242,0.7068 0.0726,0.816 0.0506,0.1092 0.1473,0.2035 0.2903,0.2849 0.1452,0.0835 0.3387,0.1242 0.5828,0.1242l0.2902 0z"/>
 </g>
 <g id="Registro">
  <metadata id="CorelCorpID_4Corel-Layer"/>
  <path id="Simbolo_x0020_de_x0020_Registro" class="fil131" d="M55.8481 8.0104c0.3046,0 0.6017,0.0781 0.8924,0.234 0.2898,0.157 0.5164,0.3803 0.6782,0.6717 0.1617,0.2907 0.243,0.5944 0.243,0.9105 0,0.3129 -0.0796,0.6134 -0.2397,0.9016 -0.1594,0.289 -0.3834,0.5132 -0.6708,0.6725 -0.2882,0.1601 -0.5887,0.2397 -0.9031,0.2397 -0.3146,0 -0.6158,-0.0796 -0.9033,-0.2397 -0.2882,-0.1593 -0.5123,-0.3835 -0.6723,-0.6725 -0.161,-0.2882 -0.2406,-0.5887 -0.2406,-0.9016 0,-0.3161 0.0813,-0.6198 0.2438,-0.9105 0.1625,-0.2914 0.3892,-0.5147 0.6798,-0.6717 0.2898,-0.1559 0.588,-0.234 0.8926,-0.234zm0 0.3006c-0.2553,0 -0.5034,0.0657 -0.7448,0.1962 -0.2415,0.1305 -0.4302,0.3178 -0.5665,0.5601 -0.1363,0.2429 -0.2044,0.4959 -0.2044,0.7593 0,0.2613 0.0672,0.5117 0.2012,0.7514 0.1337,0.2397 0.321,0.427 0.5616,0.5608 0.2405,0.1337 0.4909,0.2011 0.7529,0.2011 0.261,0 0.5123,-0.0674 0.7529,-0.2011 0.2406,-0.1338 0.4268,-0.3211 0.5599,-0.5608 0.1331,-0.2397 0.1996,-0.4901 0.1996,-0.7514 0,-0.2634 -0.0674,-0.5164 -0.2028,-0.7593 -0.1355,-0.2423 -0.3244,-0.4296 -0.5665,-0.5601 -0.2423,-0.1305 -0.4904,-0.1962 -0.7431,-0.1962zm-0.7965 2.5183l0 -1.9525 0.6708 0c0.23,0 0.3957,0.0171 0.4983,0.0533 0.1028,0.0361 0.1841,0.0994 0.2455,0.1888 0.0608,0.0904 0.0913,0.1856 0.0913,0.2866 0,0.1428 -0.051,0.2669 -0.1527,0.3727 -0.102,0.106 -0.2374,0.1651 -0.4057,0.1783 0.0689,0.0286 0.1248,0.0631 0.1659,0.1034 0.0787,0.0772 0.1749,0.2061 0.289,0.3876l0.2381 0.3818 -0.385 0 -0.1734 -0.308c-0.1363,-0.2414 -0.2455,-0.3933 -0.3291,-0.4541 -0.0576,-0.045 -0.1421,-0.0672 -0.253,-0.0672l-0.1847 0 0 0.8293 -0.3153 0zm0.3153 -1.0987l0.3826 0c0.1822,0 0.3072,-0.0279 0.3735,-0.0821 0.0666,-0.0542 0.1003,-0.1265 0.1003,-0.2167 0,-0.0576 -0.0165,-0.1092 -0.0485,-0.1553 -0.032,-0.045 -0.0763,-0.0795 -0.133,-0.1017 -0.0574,-0.023 -0.1626,-0.0337 -0.317,-0.0337l-0.3579 0 0 0.5895z"/>
 </g>
 <g id="Nombre">
  <metadata id="CorelCorpID_5Corel-Layer"/>
  <path id="A2-California" class="fil132" d="M61.8107 42.2096l-1.2163 0.0375 0.9918 0.6149 0.2245 -0.6524zm0.7299 -0.0173l-0.3583 1.0418 0.4573 0.2765 -0.3212 0.9343 -2.6878 -1.9179 0.343 -0.9971 3.453 -0.3073 -0.3292 0.9574 -0.5568 0.0123z"/>
  <polygon id="I2-California" class="fil132" points="58.5134,44.9751 59.0791,44.1723 61.7676,45.7805 61.2016,46.5834 "/>
  <polygon id="N-California" class="fil132" points="56.3818,48.853 56.8931,48.0866 59.0569,47.9382 57.5602,47.0874 58.0761,46.314 60.7819,47.852 60.2659,48.6254 58.1168,48.7754 59.6022,49.6197 59.0875,50.3911 "/>
  <path id="R-California" class="fil132" d="M55.1696 52.0001l0.2809 -0.3131c0.0301,-0.0336 0.0781,-0.1077 0.1435,-0.2223 0.0342,-0.0573 0.0452,-0.1175 0.033,-0.1809 -0.0129,-0.0629 -0.045,-0.1157 -0.098,-0.1576 -0.0778,-0.0621 -0.1593,-0.0847 -0.2449,-0.0685 -0.0862,0.0157 -0.1896,0.0917 -0.311,0.227l-0.2924 0.326 0.4889 0.3894zm0.7623 1.8851l-2.4058 -1.916 1.1098 -1.2369c0.2057,-0.2294 0.3829,-0.3891 0.5311,-0.4784 0.1478,-0.0901 0.3088,-0.1299 0.4825,-0.1192 0.1731,0.0104 0.3361,0.077 0.4891,0.1987 0.1338,0.1066 0.2231,0.2265 0.2692,0.3603 0.0458,0.1342 0.054,0.2749 0.0256,0.422 -0.019,0.0943 -0.0648,0.2063 -0.1392,0.336 0.109,-0.0646 0.1964,-0.1052 0.2628,-0.1225 0.0436,-0.0111 0.1212,-0.0174 0.2323,-0.0181 0.1116,-0.0003 0.192,0.0044 0.2429,0.015l1.0197 0.1963 -0.7528 0.839 -1.0912 -0.1892c-0.1397,-0.0251 -0.242,-0.03 -0.3062,-0.0128 -0.0845,0.0234 -0.1579,0.0699 -0.2186,0.1375l-0.0586 0.0654 0.9763 0.7775 -0.6689 0.7454z"/>
  <path id="O-California" class="fil132" d="M52.0541 55.286c0.1957,0.2389 0.3843,0.3738 0.5673,0.4056 0.1828,0.0314 0.3589,-0.0159 0.5268,-0.141 0.1727,-0.1289 0.2649,-0.2797 0.2759,-0.452 0.0107,-0.1731 -0.0916,-0.3921 -0.3078,-0.6561 -0.1825,-0.2229 -0.3651,-0.3482 -0.548,-0.3775 -0.1826,-0.0284 -0.3586,0.0201 -0.528,0.1466 -0.162,0.1206 -0.2497,0.2696 -0.2625,0.4473 -0.0129,0.1773 0.0793,0.3867 0.2763,0.6271zm-0.8073 0.5968c-0.316,-0.3858 -0.4432,-0.7747 -0.3825,-1.1657 0.0608,-0.3916 0.3025,-0.745 0.725,-1.0599 0.433,-0.323 0.8536,-0.4663 1.261,-0.4298 0.4065,0.0363 0.7665,0.2447 1.0778,0.6248 0.2262,0.2762 0.3604,0.5415 0.4027,0.7945 0.0423,0.2531 0.0069,0.5009 -0.1056,0.7435 -0.1133,0.243 -0.3138,0.4714 -0.6029,0.6869 -0.2934,0.2187 -0.5707,0.3576 -0.833,0.4165 -0.2619,0.0579 -0.5275,0.0398 -0.7981,-0.0545 -0.27,-0.0948 -0.518,-0.2801 -0.7444,-0.5563z"/>
  <polygon id="F-California" class="fil132" points="47.621,56.7918 49.7783,55.5428 50.1204,56.099 48.8394,56.8407 49.1174,57.2923 50.2112,56.6592 50.5325,57.1816 49.4387,57.8147 50.0895,58.8721 49.2133,59.3794 "/>
  <polygon id="I1-California" class="fil132" points="45.3332,57.6814 46.2869,57.3421 47.3202,60.1914 46.3664,60.5304 "/>
  <polygon id="L-California" class="fil132" points="41.8818,58.8145 42.8564,58.5465 43.458,60.7496 44.978,60.3316 45.1747,61.0518 42.68,61.7377 "/>
  <path id="A1-California" class="fil132" d="M39.7926 61.1645l-0.5366 -1.0083 -0.1707 1.1426 0.7073 -0.1343zm0.3171 0.6077l-1.129 0.2145 -0.072 0.5232 -1.0126 0.1926 0.6988 -3.2213 1.0808 -0.2052 1.713 2.763 -1.0377 0.1971 -0.2413 -0.4639z"/>
  <path id="C-California" class="fil132" d="M35.8658 61.5662l0.8644 0.2671c-0.0732,0.23 -0.1783,0.4207 -0.3149,0.5737 -0.1368,0.1524 -0.3022,0.2664 -0.4954,0.3414 -0.1934,0.0757 -0.4356,0.1097 -0.726,0.104 -0.3535,-0.0071 -0.6394,-0.061 -0.8568,-0.161 -0.2181,-0.101 -0.4013,-0.2744 -0.549,-0.5199 -0.147,-0.2457 -0.2094,-0.5572 -0.1862,-0.935 0.0311,-0.504 0.198,-0.889 0.5008,-1.1534 0.3026,-0.2652 0.7158,-0.3924 1.2386,-0.3821 0.4093,0.0082 0.7261,0.0918 0.9512,0.2519 0.2249,0.1599 0.3843,0.4015 0.478,0.7249l-0.8983 0.1674c-0.0253,-0.0936 -0.0535,-0.1622 -0.0849,-0.2062 -0.0515,-0.0727 -0.1171,-0.1294 -0.1955,-0.1699 -0.0794,-0.0407 -0.169,-0.0616 -0.2698,-0.0636 -0.2269,-0.0046 -0.407,0.0778 -0.5385,0.2469 -0.0995,0.1257 -0.158,0.3249 -0.1749,0.5977 -0.0207,0.3381 0.0201,0.5704 0.1213,0.6981 0.1019,0.1277 0.2517,0.193 0.4491,0.1969 0.1924,0.0038 0.3408,-0.0436 0.4452,-0.1429 0.1047,-0.0987 0.1848,-0.2441 0.2416,-0.436z"/>
  <path id="A2-Baja" class="fil132" d="M28.0992 60.6662l0.0107 -1.1433 -0.6958 0.9603 0.6851 0.183zm-0.0123 0.6864l-1.0935 -0.2922 -0.3133 0.4426 -0.9808 -0.2621 2.1531 -2.6133 1.0469 0.2798 0.1826 3.2375 -1.005 -0.2685 0.01 -0.5238z"/>
  <path id="J-Baja" class="fil132" d="M24.5941 57.5194l0.9314 0.3213 -0.6697 1.5594c-0.1406,0.3273 -0.2784,0.5656 -0.4127,0.7155 -0.1345,0.1499 -0.3187,0.253 -0.5538,0.3083 -0.2351,0.0544 -0.4959,0.0326 -0.783,-0.0665 -0.3041,-0.1048 -0.5228,-0.2247 -0.6557,-0.361 -0.1337,-0.1359 -0.2134,-0.2944 -0.2389,-0.4766 -0.0266,-0.1817 -0.0005,-0.3866 0.0787,-0.6141l0.9377 0.1913c-0.053,0.1266 -0.0814,0.2248 -0.0862,0.2938 -0.0046,0.0688 0.0112,0.1311 0.0469,0.1862 0.0249,0.0378 0.0702,0.0672 0.1362,0.09 0.1037,0.0356 0.1955,0.0253 0.2762,-0.0311 0.0802,-0.0576 0.158,-0.1732 0.2328,-0.3476l0.7601 -1.7689z"/>
  <path id="A1-Baja" class="fil132" d="M20.517 57.5495l0.3887 -1.0897 -0.9744 0.7119 0.5857 0.3778zm-0.2388 0.6526l-0.9351 -0.6034 -0.4421 0.3304 -0.8386 -0.5411 2.8963 -1.8602 0.8952 0.5774 -0.8991 3.1489 -0.8593 -0.5544 0.1827 -0.4976z"/>
  <path id="B-Baja" class="fil132" d="M15.8309 54.6961l0.3621 0.3345c0.1227,0.1132 0.2304,0.1728 0.324,0.178 0.0941,0.0055 0.1781,-0.0264 0.2521,-0.0954 0.0686,-0.0641 0.0991,-0.1382 0.0912,-0.2229 -0.0082,-0.0848 -0.0739,-0.1846 -0.1985,-0.2998l-0.3605 -0.3332 -0.4704 0.4388zm0.9122 -0.8506l0.3087 0.285c0.1106,0.1023 0.2072,0.1554 0.2893,0.1601 0.0824,0.0037 0.1595,-0.0284 0.2319,-0.0958 0.0676,-0.0632 0.099,-0.1325 0.0938,-0.2078 -0.0055,-0.0763 -0.062,-0.1637 -0.1695,-0.263l-0.3135 -0.2895 -0.4407 0.411zm0.1945 -1.5116l1.3296 1.2284c0.2214,0.2043 0.3358,0.4136 0.3435,0.6263 0.0078,0.213 -0.0701,0.396 -0.2335,0.5483 -0.1372,0.1282 -0.2973,0.199 -0.4803,0.2125 -0.1222,0.0088 -0.2566,-0.0189 -0.403,-0.0841 0.1248,0.1897 0.177,0.3662 0.1579,0.5293 -0.0202,0.1629 -0.104,0.3135 -0.2515,0.4512 -0.1207,0.1125 -0.2567,0.1875 -0.4081,0.2265 -0.1518,0.0381 -0.3029,0.039 -0.4553,0.0027 -0.0942,-0.0226 -0.2093,-0.0819 -0.3455,-0.1787 -0.1811,-0.128 -0.2979,-0.2158 -0.3502,-0.2643l-1.2259 -1.1324 2.3223 -2.1657z"/>
  <path id="__x002c__x0020_-Tijuana" class="fil132" d="M11.0817 48.9755l0.3997 0.8241 -0.6811 0.2785c-0.2502,0.1022 -0.4713,0.1346 -0.6635,0.0964 -0.1917,-0.038 -0.4007,-0.1515 -0.6256,-0.3409l0.2738 -0.3281c0.1448,0.1169 0.2663,0.1881 0.3652,0.2133 0.0995,0.0251 0.1994,0.0208 0.3018,-0.0132l-0.1913 -0.3945 0.821 -0.3356z"/>
  <path id="A2_x0020_-Tijuana" class="fil132" d="M9.6728 45.8942l0.9251 -0.7598 -1.2192 0.1525 0.2941 0.6073zm-0.5591 0.4522l-0.4695 -0.9694 -0.5572 0.0757 -0.4209 -0.8695 3.4848 -0.2318 0.4494 0.9278 -2.4821 2.3025 -0.4313 -0.8908 0.4268 -0.3445z"/>
  <polygon id="N_x0020_-Tijuana" class="fil132" points="9.5139,39.0168 9.7285,39.8683 8.2468,41.3634 10.008,40.9786 10.2246,41.8378 7.0407,42.5332 6.8243,41.6741 8.2938,40.1876 6.546,40.5694 6.33,39.7121 "/>
  <path id="A1_x0020_-Tijuana" class="fil132" d="M7.1669 36.5243l1.1219 -0.4766 -1.2099 -0.1858 0.088 0.6624zm-0.6757 0.2813l-0.1407 -1.0576 -0.5546 -0.0793 -0.1261 -0.9485 3.3939 0.7272 0.1344 1.0123 -3.0936 1.5317 -0.1293 -0.9719 0.516 -0.2139z"/>
  <path id="U_x0020_-Tijuana" class="fil132" d="M8.8606 32.4136l-0.1073 0.9294 -1.9382 -0.1998c-0.1924,-0.0198 -0.3701,-0.0665 -0.5345,-0.1395 -0.164,-0.0729 -0.3039,-0.1754 -0.4179,-0.3071 -0.1142,-0.1316 -0.1893,-0.2648 -0.2263,-0.4008 -0.0511,-0.1883 -0.0625,-0.4086 -0.0331,-0.6625 0.017,-0.1465 0.0459,-0.3054 0.0884,-0.4763 0.0421,-0.1708 0.1029,-0.3109 0.1822,-0.4204 0.0792,-0.1096 0.1853,-0.2066 0.3175,-0.291 0.1322,-0.0841 0.2648,-0.1372 0.3974,-0.16 0.2135,-0.0361 0.3997,-0.0459 0.5596,-0.0295l1.9383 0.1996 -0.1072 0.9293 -1.9845 -0.2045c-0.178,-0.0182 -0.3217,0.013 -0.4314,0.0933 -0.1102,0.0807 -0.175,0.202 -0.1936,0.364 -0.0185,0.1599 0.0163,0.2912 0.104,0.3924 0.0872,0.1007 0.2221,0.1606 0.4021,0.1792l1.9845 0.2042z"/>
  <path id="J_x0020_-Tijuana" class="fil132" d="M9.4739 27.8558l-0.1211 0.9334 -1.7641 -0.1797c-0.3702,-0.0378 -0.6478,-0.0973 -0.8333,-0.178 -0.1855,-0.0807 -0.3337,-0.2194 -0.4442,-0.4177 -0.1097,-0.1981 -0.1463,-0.4407 -0.1089,-0.7283 0.0395,-0.3046 0.1138,-0.536 0.2246,-0.6939 0.1102,-0.1584 0.256,-0.2744 0.4386,-0.3477 0.1817,-0.0739 0.3996,-0.1064 0.6525,-0.097l0.0151 0.903c-0.1428,-0.0131 -0.2509,-0.0122 -0.3232,0.0027 -0.0724,0.0146 -0.1331,0.046 -0.182,0.0936 -0.0335,0.0328 -0.0536,0.0821 -0.0622,0.1482 -0.0134,0.1037 0.0182,0.1843 0.0948,0.242 0.0776,0.057 0.2149,0.0957 0.412,0.1156l2.0014 0.2038z"/>
  <polygon id="I_x0020_-Tijuana" class="fil132" points="10.5691,24.4364 10.2988,25.3451 7.1503,24.5773 7.4208,23.6688 "/>
  <polygon id="T_x0020_-Tijuana" class="fil132" points="11.9611,20.463 11.0082,23.1943 10.242,22.9782 10.5617,22.0616 8.2263,21.4031 8.5398,20.5048 10.8754,21.1631 11.1948,20.2469 "/>
 </g>
</svg>
